<?xml version="1.0" encoding="UTF-8"?>
<!DOCTYPE svg PUBLIC "-//W3C//DTD SVG 1.1//EN" "http://www.w3.org/Graphics/SVG/1.1/DTD/svg11.dtd">
<!-- Creator: CorelDRAW 2020 (64-Bit) -->
<svg xmlns="http://www.w3.org/2000/svg" xml:space="preserve" width="148.031mm" height="98.5766mm" version="1.1" style="shape-rendering:geometricPrecision; text-rendering:geometricPrecision; image-rendering:optimizeQuality; fill-rule:evenodd; clip-rule:evenodd"
viewBox="0 0 68452.9 45584.1"
 xmlns:xlink="http://www.w3.org/1999/xlink"
 xmlns:xodm="http://www.corel.com/coreldraw/odm/2003">
 <defs>
  <style type="text/css">
   <![CDATA[
    .fil1 {fill:#434242}
    .fil2 {fill:#5894CF}
    .fil3 {fill:#5FAC6F}
    .fil0 {fill:#80749B}
   ]]>
  </style>
 </defs>
 <g id="Слой_x0020_1">
  <metadata id="CorelCorpID_0Corel-Layer"/>
  <g id="_2633081170352">
   <path class="fil0" d="M12887.1 13614.4l0 -1764.8 -10269.3 0 0 667.1 10269.3 1097.7zm316.6 6474.8c129.7,-186.7 272.2,-364.1 426.5,-530.7l91.8 -114.2 9.7 7.8c872.9,-887.2 2088.8,-1443.4 3448.3,-1443.4l306.2 0 -43.5 687.3 -2052.3 2088 3687.8 2961c335.2,-402.2 1185.7,-1452.2 1974.7,-2518.2 197.4,-266.8 353.8,-557.1 467.3,-861.6l2977.1 10285.1 -8617.1 0 -2565.9 0 -96.5 0c-1342.1,0 -2359.5,1211.7 -2127,2533.7l494.3 2810.2 -1286.2 1600.3c-939.3,1168.4 -2647.5,1354.8 -3816.4,416.3l-2551.2 -2048.9c-1170.2,-939.1 -1356.5,-2648.9 -416.7,-3818.1l9689 -12054.7zm29879.5 17921.7l2551.8 -2048.9c1169.6,-939.1 1355.8,-2648.9 416.6,-3818.1l-9544.7 -11875.3c-851.7,-1349.1 -2355.6,-2259.8 -4094.8,-2259.8l-332.5 0 43.4 687.3 2052.7 2088 -3688.2 2961.2c-335.1,-402.2 -1185.2,-1452.2 -1974.8,-2518.4 -157,-212.2 -288,-439.3 -392.2,-676.5l-2924 10100 8489 0 2644 0 18.4 0c1342,0 2359.5,1211.7 2127,2533.7l-494.2 2810.4 1286.1 1600.2c939.3,1168.4 2647.4,1354.8 3816.4,416.3zm22074.2 -17945.2l-1997.2 3459.6c-110,190.4 27.4,428.5 247.3,428.5l3995.1 0c219.8,0 357.1,-238 247.3,-428.5l-1997.2 -3459.6c-109.9,-190.4 -385.3,-190.4 -495.3,0zm329.2 2723.7l-186.9 0 -10.4 -1770.4 209.3 0 -12.1 1770.4zm-220.9 565.7c0,-38.5 12.6,-70.9 37.3,-97.5 24.8,-26.6 58.3,-39.9 101.1,-39.9 42.9,0 76.9,13.3 102.2,39.9 25.3,26.6 37.9,59.1 37.9,97.6 0,37.3 -12.7,68.7 -37.9,94.1 -25.2,25.5 -59.4,38.2 -102.2,38.2 -42.8,-0 -76.4,-12.8 -101.1,-38.2 -24.6,-25.4 -37.4,-56.7 -37.3,-94.1zm-62648 -15385.6l10460.6 0c190.8,0 345.7,154.4 345.7,345l0 1642c0,150.3 -95.8,276.4 -227.3,324.3l-10210.2 -1091.4c-56.5,-6 -113.2,0.2 -166.2,17.4l-202.6 -21.6 0 -204.9c28.3,0 51.7,-21.5 54.7,-49.2l10214.6 1091.9 0 -1764.8 -10214.4 0c0,-30.4 -24.6,-54.9 -54.9,-54.9l0 -233.8z"/>
   <path class="fil1" d="M15404.2 20850.2c-12,0 -24.2,-3.9 -34.1,-11.9l-1479.5 -1177.8c-24.1,-18.9 -28,-53.5 -8.8,-77.2 18.7,-23.8 53.3,-27.7 76.9,-8.8l1480.1 1177.8c23.7,18.9 27.5,53.5 8.2,77.2 -10.3,13.6 -26.4,20.7 -42.9,20.7zm33816.5 -297.6l-8168.7 0c-30.3,0 -55.1,-24.5 -55.1,-54.9l0 -3664.6 -1668.6 0c-1291,0 -2341.3,-1050 -2341.3,-2340.7l0.1 -11173c0,-30.4 24.6,-54.9 54.9,-54.9l31355.9 -0c30.2,0 54.9,24.6 54.9,55l0 11172.9c0,1290.8 -1050.3,2340.8 -2340.8,2340.8l-25005.2 0 0 3609.6 8113.9 0c30.2,0 54.8,24.6 54.8,54.9 0,30.4 -24.7,55 -54.8,54.9zm-8223.8 -3829.4l0 -1938c0,-30.4 24.7,-54.9 54.9,-54.9 30.2,-0 55,24.6 55,54.9l0 1938 25005.2 0c1230,0 2230.8,-1000.8 2230.8,-2230.9l0 -11118 -31245.9 0 0 11118c0,1230.1 1000.7,2230.9 2231.3,2230.9l1668.6 0zm3263 -2542.6l21335 0 0 -3154.6 -21335 0 0 3154.6zm21389.9 110l-21444.8 0c-30.3,0 -55,-24.6 -55,-55l0 -3264.5c0,-30.3 24.7,-54.9 54.9,-54.9l21444.9 0c30.3,0 54.9,24.6 54.9,54.9l0.1 3264.5c0,30.4 -24.8,55 -55,55zm-21389.9 -5360.1l21335 0 0 -3154.6 -21335 0 0 3154.6zm21389.9 109.9l-21444.8 0c-30.3,0 -55,-24.6 -55,-54.9l0 -3264.5c0,-30.4 24.7,-55 54.9,-55l21444.9 0c30.3,0 54.9,24.6 54.9,55l0.1 3264.4c0,30.4 -24.8,55 -55,55zm2748.1 -6553.5c-30.3,0 -55.1,-24.6 -55.1,-54.9l0 -697.2c0,-895.9 -728.8,-1624.9 -1624.7,-1624.9l-27996.1 -0c-895.9,0 -1625.2,729 -1625.2,1625l0.1 697.1c0,30.4 -24.3,55 -55,55 -30.1,0 -55,-24.6 -55,-54.9l0.1 -697.2c0,-956.6 778.1,-1734.8 1735,-1734.8l27996.1 0c956.4,0 1734.5,778.2 1734.5,1734.8l0 697.1c0,30.4 -24.8,55 -54.9,55zm-26628.8 -1243.4c-312.7,0 -566.7,254.2 -566.7,566.7 0.1,312.5 253.9,566.7 566.7,566.7 312.8,0 566.6,-254.2 566.6,-566.7 0,-312.5 -253.9,-566.7 -566.6,-566.7zm0 1243.4c-373.2,0 -676.6,-303.5 -676.6,-676.7 0.1,-373.1 303.4,-676.7 676.6,-676.7 373.3,0 676.5,303.5 676.5,676.7 0.1,373.1 -303.3,676.7 -676.5,676.7zm1814.2 -1243.4c-312.1,0 -566.7,254.2 -566.7,566.7 0.1,312.5 254.5,566.7 566.7,566.7 312.8,0 566.7,-254.2 566.7,-566.7 0,-312.5 -254,-566.7 -566.6,-566.7zm0 1243.4c-373.2,0 -676.6,-303.5 -676.6,-676.7 0.1,-373.1 303.4,-676.7 676.6,-676.7 373.3,0 676.6,303.5 676.6,676.7 0,373.1 -303.4,676.7 -676.5,676.7zm-7235.5 28163.5l-2591.7 0 -4620.8 -5749 1403.7 -1126.8c23.6,-19 27.6,-53.6 8.3,-77.2 -19.2,-23.7 -53.8,-27.5 -77.5,-8.5l-1446 1161.2c-11.6,9.1 -18.7,22.4 -20.3,36.9 -1.7,14.4 2.8,29 11.6,40.4l4600 5723 -17664.4 0 4600 -5723c9.4,-11.4 13.3,-25.9 11.6,-40.4 -1.1,-14.5 -8.8,-27.8 -19.8,-36.9l-1443.2 -1158.6c-23.6,-19.1 -58.3,-15.3 -77.5,8.4 -18.7,23.7 -14.8,58.2 8.9,77.2l1399.8 1124.3 -4620.5 5749 -2592 0c-1342.1,0 -2359.5,1211.7 -2127,2533.7l1601.5 9105.1c181.4,1032.6 1078.3,1785.6 2127,1785.6l19927.5 0c1048.2,0 1945.6,-753.1 2126.9,-1785.6l1601.1 -9105.2c232.5,-1322 -784.9,-2533.7 -2127,-2533.7zm-22982.7 -17047.6c-30.2,0 -55,-24.6 -55,-54.9l0 -1642.1c0,-30.4 24.7,-54.9 54.9,-54.9 30.3,0 54.9,24.6 54.9,54.9l0.1 1642c0,30.4 -24.8,55 -55,55zm0 1289.2c-30.2,0 -55,-24.6 -55,-54.9l0 -667c0,-30.4 24.7,-55 54.9,-55 30.3,0 54.9,24.6 54.9,55l0.1 667c0,30.4 -24.8,54.9 -55,54.9zm-10747.4 -5911.8c-30.2,0 -55,-24.6 -55,-55l0.1 -667.1c0,-30.4 24.6,-54.9 54.9,-54.9 30.3,0 54.9,24.6 54.9,55l0.1 667c0,30.3 -24.8,55 -55,55zm20824.2 2205.9c502.3,-150.2 1077.6,-236.3 1737.4,-233.1 324.4,1.6 626.8,28.3 908.8,76.1 -20.4,-193 40.8,-391.7 177.7,-540 243.6,-263.8 654.1,-294.6 934.3,-70.3l3850.5 2996.9c618.9,481.8 962.9,1236.4 921.1,2019.2l161.7 2551.2c1.6,30.3 -21.5,56.4 -51.7,58.4 -30.1,1.4 -56,-21.1 -58.3,-51.4l-161.6 -2554.5c0,-2.2 0,-4.3 0,-6.5 41.3,-748 -287.4,-1469.4 -878.8,-1929.7l-3851.1 -2997.4c-236.3,-188.9 -580.9,-163 -785.4,58.6 -173.5,187.5 -202.2,471.1 -70.3,689.4l230.1 380.7 3040.2 2234.5c24.1,18 29.6,52.4 11.5,76.9 -10.4,14.7 -27.5,22.5 -43.9,22.4 -11.6,0 -23.2,-3.5 -32.5,-10.6l-2991.2 -2198.3 -148.7 381.4c-79.2,204.6 -37.4,432.9 109.9,595.8l2265 2506.2c12,13.5 16.9,32.4 12.5,50.1l-748.4 3020.7c-182.6,737.8 -113.9,1527.2 193.3,2222.7 12.2,27.7 -0.6,60.2 -28,72.5 -7,3.1 -14.8,4.7 -21.9,4.6 -21.5,0 -41.3,-12.2 -50.7,-32.7 -27.7,-62.7 -53.5,-126.1 -77.4,-190.1 -690,823.3 -1593.7,1299.2 -2644.4,1393.7l1796.3 2271.6c19.3,23.7 14.8,58.3 -8.8,77.2 -23.6,19 -58.3,14.9 -76.9,-9l-1842.8 -2329.9c-86.7,5.1 -174.2,7.7 -262.7,7.7 -77.1,0 -153.5,-1.8 -229.3,-5.5l-2005.9 2425.1c-10.5,13.1 -26.5,20 -42.4,19.9 -12,0 -24.7,-4.1 -34.6,-12.6 -23.6,-19.3 -26.9,-54 -7.7,-77.4l1955 -2363.4c-1191.8,-91.3 -2220,-633.7 -2990.4,-1582.6 -6.2,-7.6 -12.3,-15.4 -18.5,-23.1l3.8 -12.3c-28.8,-8.7 -45.1,-39 -36.9,-68.1 168.8,-582 180.8,-1200.4 35.2,-1788.4l-747.9 -3020.8c-4.4,-17.7 -0.1,-36.4 12.5,-50l2265 -2506.2c146.6,-162.9 188.9,-391.2 109.2,-595.7l-149.5 -384.9 -2928.7 1945.8c-9.4,6.2 -19.9,9.2 -30.3,9.2 -18.2,0 -35.2,-8.6 -45.6,-24.5 -16.9,-25.3 -10.5,-59.4 14.8,-76.3l2975.5 -1976.9 229.3 -379.5c131.8,-218.4 103.3,-502 -69.9,-689.5 -204.9,-221.7 -549.6,-247.6 -784.8,-59l-3851.5 2997.8c-592,460.3 -920.1,1181.6 -879.4,1929.7 0.6,2.1 0,4.3 0,6.5l-162.7 2575.2c-2.1,30.3 -28,52.5 -58.3,51.3 -30.1,-1.9 -53.3,-28 -51.7,-58.3l162.7 -2572c-41.8,-782.8 302.8,-1537.5 921.6,-2019.2l3851.2 -2997.3c279.7,-224 689.7,-193.1 933.7,70.7 174.6,189.1 225.7,460.4 141.6,697zm-7474.4 4031l-15912.6 0c-30.3,0 -55,-24.6 -55,-54.9l0 -2541.3c0,-30.4 24.7,-54.9 55,-54.9 30.2,-0 54.9,24.6 54.9,54.9l0 2486.3 15802.7 0 0 -2486.3c0,-30.4 24.7,-54.9 55,-54.9 30.2,-0 54.9,24.6 54.9,54.9l0 2541.2c0,30.4 -24.7,55 -54.9,54.9zm6412.1 -6704.1c-22.5,0 -43.4,-13.7 -51.7,-35.9l-1210.1 -3260 -1634.5 1514.5c-13.7,12.4 -32,17.2 -50.1,13.3 -17.6,-4.1 -31.9,-16.7 -38.5,-33.6l-1630.1 -4187.7c-11,-28.3 2.7,-60.1 31.3,-71.1 28,-11 59.9,3 70.9,31.4l1601.1 4112.3 1635.5 -1515.5c13.7,-12.5 32.4,-17.4 50,-13.2 18.1,4.3 32.4,17.2 39,34.4l1238.8 3337c10.5,28.5 -3.9,60.1 -32.5,70.7 -6.6,2.4 -12.6,3.5 -19.2,3.5zm3715.9 -340c-8.3,0 -17.1,-1.9 -25.3,-6.2 -26.9,-14 -37.4,-47.2 -23.7,-74.2l1742.9 -3346.6 -2406.7 -224.6c-18.2,-1.7 -34.7,-12.2 -43.5,-28.1 -8.8,-15.9 -8.8,-35.1 -1.1,-51.3l2179.7 -4351.6c13.7,-27.1 46.7,-38.1 73.7,-24.6 27.5,13.6 38.5,46.7 24.7,73.8l-2143.3 4279.8 2408.3 224.8c18.2,1.7 34,12.4 42.8,28.5 8.9,16.1 9.3,35.4 0.6,51.7l-1780.1 3419.1c-9.9,18.8 -29.2,29.6 -49,29.5zm-1885.7 -88.6c-1.6,0 -2.8,0 -4.4,-0.1 -30.2,-2.3 -52.7,-28.6 -50.5,-58.8l281.4 -3765.4 -2298.9 749c-17.6,5.4 -36.3,2.4 -50.6,-8.7 -14.2,-11.2 -22.5,-28.6 -21.5,-46.8l287 -4861.9c1.6,-30.3 27.4,-53 58.2,-51.6 30.3,1.7 53.3,27.8 51.7,58l-281.8 4781.5 2300 -749.4c17.6,-5.6 36.8,-2.3 51.1,9 14.4,11.3 22,29.1 20.9,47.3l-288 3847c-2.2,28.9 -25.8,50.9 -54.4,50.9zm3411.9 1016.1c-15.8,0 -31.9,-6.8 -42.9,-20.1 -19.2,-23.4 -16,-58.1 7.7,-77.3l2683.2 -2203.4 -1957.2 -1063.3c-16,-8.7 -26.4,-24.6 -28.6,-42.6 -1.5,-18 5.5,-35.8 19.2,-47.5l3421.9 -2901.7c23,-19.7 57.6,-16.8 77.4,6.4 19.8,23.1 17.1,57.8 -6,77.4l-3360.7 2849.9 1958.1 1063.9c16,8.7 26.9,24.9 28.6,43.1 1.7,18.2 -6.1,36.1 -19.8,47.7l-2746.3 2255.2c-10.4,8.4 -22.5,12.4 -34.6,12.4zm952.6 6148.1c-670.7,-249.1 -1416.4,-707.6 -1807.2,-1550.5 0,0 -600.7,2380.6 -3497.7,1801.6 0.1,-0 364.9,-107.2 622.1,-557.6 0,0 -975.6,770.3 -2845.8,735.9l645.8 2608.5c149.5,602.2 138,1235.3 -32.5,1831.9 797.6,992.3 1943.3,1572.8 3297.6,1572.8 1225.1,0 2256.9,-514.1 2998.9,-1415.7 -213.9,-638.7 -243.9,-1333.6 -81.6,-1989.1l741.5 -2992.3 -41.1 -45.5zm-15169.7 -3619.8l-10460.5 0c-220.9,0 -400.1,-179.4 -400.1,-399.9l0.1 -1642.1c0,-113.2 48.3,-221.6 132.3,-297.3 84.2,-75.8 197.3,-112.2 310,-100.3l10424.3 1114.3c30.3,3.2 52.2,30.3 48.9,60.4 -3.3,30.1 -30.2,51.9 -60.4,48.8l-10424.3 -1114.3c-81.8,-8.5 -163.8,17.8 -224.8,72.8 -61.5,54.9 -96.2,133.5 -96.2,215.6l0.1 1642c0,159.9 130.2,290 290.1,290l10460.5 0c30.8,0 55,24.6 55,54.9 0,30.4 -24.2,55 -55,55zm12380.9 25733.8c0,-553.8 -449.1,-1002.6 -1002.5,-1002.6 -553.9,-0 -1003,448.8 -1003,1002.6 0.1,553.7 449.1,1002.6 1003,1002.6 553.4,0 1002.5,-448.9 1002.5,-1002.6zm8410.6 -16540c-16,0 -32,-7 -43,-20.6 -19.1,-23.6 -15.4,-58.2 8.3,-77.2l1551.7 -1246.7c23.6,-19.1 58.1,-15.3 77.4,8.5 18.7,23.5 14.8,58.2 -8.8,77.2l-1550.9 1246.7c-10.5,8.1 -22.6,12.1 -34.6,12.1z"/>
   <path class="fil2" d="M13404.8 15125.8l-10460.5 0c-190.7,0 -345.2,-154.4 -345.2,-345l0 -1642c0,-205.1 177.5,-364.8 381.4,-343l10424.3 1114.3 0 259.9 -10269.2 -1097.7 0 1764.8 10269.2 0 0 288.8zm-10269.2 -5622l0 1764.8 10269.2 16.5 0 -683.6 -10269.2 -1097.7zm37441 -7693.6c0,343.4 -278.7,621.7 -621.6,621.7 -343.4,-0 -621.6,-278.3 -621.6,-621.7 0,-343.4 278.1,-621.7 621.6,-621.7 343,0 621.6,278.3 621.6,621.7zm21266.8 30620.8c214.9,214.9 214.9,562.8 0,777.1 -107.1,107.7 -247.9,161 -388.6,161 -140.7,0 -281.4,-53.3 -388.6,-161l-2914 -2914.1 -2914 2914.1c-107.7,107.7 -248.5,161 -389.2,161 -140.7,0 -280.9,-53.3 -388.6,-161 -214.2,-214.4 -214.3,-562.3 0,-777.1l2914 -2913.9 -2914 -2914.1c-214.3,-214.9 -214.4,-562.8 -0,-777.1 215,-214.9 562.8,-214.9 777.7,0l2914 2914 2914.1 -2914c214.8,-214.9 562.7,-214.9 777.1,0 214.9,214.3 214.9,562.3 0,777.1l-2913.9 2914.1 2913.9 2913.9zm-11884 -8372.2l978.3 7398.4c378.7,2861.1 1937.9,5432.7 4300,7090.4l2285.3 1603.6c582.6,408.8 1363.5,390 1925.8,-46.6l1999.6 -1552.5c2149.5,-1669.1 3551.4,-4120 3902.1,-6818.5l994.9 -7666.5c4.9,-37.9 8.4,-75.7 10.5,-113.3l-1121.4 0c136.9,247.6 198.1,538.8 159.4,837.6l-873.9 6733c-307.8,2370.1 -1539.4,4522.5 -3427.3,5988.3l-1755.4 1363.5c-494.1,383.3 -1180,399.9 -1691.7,40.9l-2006.6 -1408.3c-2074.8,-1455.9 -3444.2,-3714.5 -3776.7,-6227.1l-859.1 -6497.5c-89.1,-676.5 333,-1315.5 990.4,-1498.2l4146.7 -1152c1270.1,-353 2611.7,-358.4 3884.5,-15.8l3416.9 919.6 574.9 -996 -3784.6 -1018.5c-1449.3,-390.1 -2977.2,-383.9 -4423.3,17.9l-4721.5 1311.8c-748.5,208 -1229.5,935.6 -1127.8,1705.8zm-8311.6 -17742.3c0,328.9 -266.6,595.6 -595.9,595.6 -329.1,-0 -595.7,-266.7 -595.7,-595.6 0,-328.9 266.5,-595.6 595.7,-595.6 329.3,0 595.8,266.6 595.9,595.6zm302.2 5904.5c-51.1,0 -92.4,-41.2 -92.4,-92.2l0 -311.5c0,-364.9 -297.9,-661.6 -663.3,-661.6l-284.6 0c-365.5,0 -663.4,296.8 -663.4,661.6l0 311.5c0,50.9 -41.2,92.2 -92.3,92.2 -51.1,0 -92.3,-41.2 -92.3,-92.2l0 -311.5c0,-466.6 380.3,-846.2 848,-846.2l284.8 0c467.7,0 847.9,379.6 847.9,846.2l0.1 311.5c0,50.9 -41.3,92.2 -92.3,92.2zm209.3 175.7l-2214.9 0c-83.5,0 -150.6,67.3 -150.6,150.4l0.1 663.2c0,566.2 459.9,1025.3 1027.6,1025.3l460.6 0c567.7,0 1027.7,-459.1 1027.7,-1025.3l0 -663.2c0,-83.1 -67.7,-150.4 -150.7,-150.4zm-880.5 617.2c0,-125.1 -101.7,-226.4 -227,-226.4 -125.3,-0 -227,101.3 -227,226.4 0,85.7 47.8,160.3 118.1,198.7l0.1 436.5c0,60 48.3,108.6 108.7,108.6 59.9,0 108.9,-48.6 108.9,-108.6l0 -436.6c70.4,-38.4 118.1,-112.9 118.1,-198.7zm-226.9 -5751.5c-716.8,0 -1326.3,-11.7 -1553.2,627 227,638.7 836.5,1096.1 1553.1,1096.1 716.7,-0 1326.2,-457.4 1553.2,-1096.1 -227,-638.7 -836.5,-627 -1553.1,-627z"/>
   <path class="fil3" d="M47182.2 7353.3c0,518.5 -420.5,939 -938.7,939 -518.8,-0 -939.3,-420.4 -939.3,-939 0.1,-518.6 420.4,-939 939.3,-939 518.3,-0 938.7,420.4 938.7,939zm-21396.5 30009.4c0,-553.8 -449.1,-1002.6 -1002.5,-1002.6 -553.9,-0 -1003,448.8 -1003,1002.6 0.1,553.7 449.1,1002.6 1003,1002.6 553.4,0 1002.5,-448.9 1002.5,-1002.6zm22323.7 525.5l-10461.7 0 -773.9 4401.1c-181.3,1032.6 -1078.7,1785.6 -2126.9,1785.6l-19927.5 0c-1048.6,0 -1945.6,-753.1 -2127,-1785.6l-774.1 -4401.1 -10405.8 0c-805.2,0 -1457.6,652.5 -1457.6,1457.5l0 4780.9c0,805.1 652.3,1457.5 1457.5,1457.5l46596.9 0c804.7,0 1457.5,-652.4 1457.5,-1457.5l0.1 -4781c0,-805 -653,-1457.4 -1457.6,-1457.5zm13958.8 -25284.7c0,518.6 -420.5,938.9 -938.8,938.9 -518.8,0 -939.2,-420.4 -939.2,-938.9 0,-518.7 420.4,-939 939.2,-939 518.4,0 938.8,420.3 938.8,939zm-2977.3 0c0,518.6 -420.4,938.9 -938.7,938.9 -518.7,0 -939.2,-420.4 -939.2,-938.9 0,-518.7 420.4,-939 939.2,-939 518.3,0 938.7,420.3 938.7,939zm-2977.1 0c0,518.6 -420.5,938.9 -938.8,938.9 -518.8,0 -939.3,-420.4 -939.3,-938.9 0,-518.7 420.5,-939 939.3,-939 518.3,0 938.7,420.3 938.8,939zm-2977.2 0c0,518.6 -420.5,938.9 -938.7,938.9 -518.7,0 -939.3,-420.4 -939.3,-938.9 0.1,-518.7 420.5,-939 939.3,-939 518.2,0 938.7,420.3 938.7,939zm-2977.1 0c0,518.6 -420.5,938.9 -938.8,938.9 -518.8,0 -939.3,-420.4 -939.3,-938.9 0,-518.7 420.4,-939 939.3,-939 518.4,0 938.7,420.3 938.8,939zm-2977.3 0c0,518.6 -420.5,938.9 -938.7,938.9 -518.8,0 -939.3,-420.4 -939.3,-938.9 0.1,-518.7 420.4,-939 939.3,-939 518.3,0 938.7,420.3 938.7,939zm11908.7 -5250.2c0,518.5 -420.4,939 -938.7,939 -518.7,-0 -939.2,-420.4 -939.2,-939 0,-518.6 420.4,-939 939.2,-939 518.3,-0 938.7,420.4 938.7,939zm-2977.1 0c0,518.5 -420.5,939 -938.8,939 -518.8,-0 -939.3,-420.4 -939.3,-939 0,-518.6 420.5,-939 939.3,-939 518.3,-0 938.7,420.4 938.8,939zm-2977.2 0c0,518.5 -420.5,939 -938.7,939 -518.7,-0 -939.3,-420.4 -939.3,-939 0.1,-518.6 420.5,-939 939.3,-939 518.2,-0 938.7,420.4 938.7,939zm-2977.1 0c0,518.5 -420.5,939 -938.8,939 -518.8,-0 -939.3,-420.4 -939.3,-939 0,-518.6 420.4,-939 939.3,-939 518.4,-0 938.7,420.4 938.8,939z"/>
  </g>
 </g>
</svg>
