<?xml version="1.0" encoding="UTF-8"?>
<!DOCTYPE svg PUBLIC "-//W3C//DTD SVG 1.1//EN" "http://www.w3.org/Graphics/SVG/1.1/DTD/svg11.dtd">
<!-- Creator: CorelDRAW 2020 (64-Bit) -->
<svg xmlns="http://www.w3.org/2000/svg" xml:space="preserve" width="147.974mm" height="98.7656mm" version="1.1" style="shape-rendering:geometricPrecision; text-rendering:geometricPrecision; image-rendering:optimizeQuality; fill-rule:evenodd; clip-rule:evenodd"
viewBox="0 0 20943.7 13978.9"
 xmlns:xlink="http://www.w3.org/1999/xlink"
 xmlns:xodm="http://www.corel.com/coreldraw/odm/2003">
 <defs>
  <style type="text/css">
   <![CDATA[
    .fil3 {fill:#434242}
    .fil0 {fill:#5894CF}
    .fil2 {fill:#5FAC6F}
    .fil1 {fill:#80749B}
   ]]>
  </style>
 </defs>
 <g id="Слой_x0020_1">
  <metadata id="CorelCorpID_0Corel-Layer"/>
  <g id="_2633088875024">
   <path class="fil0" d="M12939.1 2623.4l0 359.9 -12939.1 0 0 -359.9c0,-257.5 208.8,-466.3 466.3,-466.3l12006.5 0c257.5,0 466.3,208.8 466.3,466.3zm-8642.5 10314.1l-1328.6 0 0 -440.8 1328.6 0 0 440.8zm-1352.8 -5300.6c-9.3,0 -16.8,-7.5 -16.8,-16.8l0 -550.5c0,-9.3 7.5,-16.8 16.8,-16.8 9.3,0 16.8,7.5 16.8,16.8l0 550.5c0,9.3 -7.5,16.8 -16.8,16.8zm264.2 -3105.6l4603.8 0c154.2,0 279.3,125 279.3,279.3 0,154.2 -125,279.3 -279.3,279.3l-4603.8 0c-154.2,0 -279.3,-125 -279.3,-279.3 0,-154.3 125,-279.3 279.3,-279.3zm-2442.2 -1934.4c0,88.7 -71.9,160.5 -160.5,160.5 -88.6,0 -160.5,-71.8 -160.5,-160.5 0,-88.6 71.9,-160.5 160.5,-160.5 88.6,-0 160.5,71.9 160.5,160.5zm12173.3 403.2l0 4654.3 -141.1 412.3c-28.3,82.7 -98.7,144 -184.6,160.7l-51.7 10c-6.1,-16.9 -11.2,-34.1 -15,-51.3 -309.2,17.5 -552.9,43.1 -843.1,88.5 -553.9,86.7 -1031,421.9 -1333.5,893.5 -36.7,57.2 -73.7,114.7 -110.7,172.3l-9793 -0c-257.5,0 -466.3,-208.8 -466.3,-466.3l0 -5874 12939.1 0zm-1331.9 4279.9c0,467.6 -379,846.6 -846.6,846.6l-9484.7 0c-467.6,0 -846.6,-379 -846.6,-846.6 0,-467.6 379,-846.6 846.6,-846.6l9484.7 -0c467.6,0 846.6,379 846.6,846.6zm0 -2469.4c0,467.6 -379,846.6 -846.6,846.6l-9484.7 0c-467.6,0 -846.6,-379 -846.6,-846.6 0,-467.6 379,-846.6 846.6,-846.6l9484.7 0c467.6,0 846.6,379 846.6,846.6zm-10373 -2213.7c0,88.7 -71.9,160.5 -160.5,160.5 -88.7,0 -160.5,-71.8 -160.5,-160.5 0,-88.6 71.8,-160.5 160.5,-160.5 88.6,-0 160.5,71.9 160.5,160.5zm468.4 0c0,88.7 -71.9,160.5 -160.5,160.5 -88.6,0 -160.5,-71.8 -160.5,-160.5 0,-88.6 71.9,-160.5 160.5,-160.5 88.6,-0 160.5,71.9 160.5,160.5z"/>
   <path class="fil1" d="M16318.9 8854c-255.7,-345.1 -646.5,-564.5 -1074.4,-603.9 -243.8,-22.5 -549.2,-46.3 -890.1,-63.7 -18.8,61.3 -45.1,120.6 -79.1,176.6 -98.9,162.4 -253.5,287.5 -425.9,365.1 -172.6,77.7 -365.7,112.8 -554.2,90.1 -184.6,-22.2 -360.3,-100.8 -487.8,-238.1 -104,-112 -228.8,-247.3 -260.8,-394 -309.2,17.5 -552.9,43.1 -843.1,88.5 -553.9,86.7 -1031,421.9 -1333.5,893.5 -660,1029 -1394,2115.3 -1394,3368.4 0,1424.7 3423.2,1300.9 3423.2,1300.9 0,0 -329.5,-61.6 -304.3,-231.6 166.2,-1120.9 815,-1684.8 815,-1684.8 2150,-236.5 2031.3,1721.2 2031.3,1721.2l-692.7 88.9 1488.4 106.3 270 -229.1 -445.6 -110.1 720.6 -123.3 1589.3 -1349.1c0,0 -664.3,-1973.8 -1552.2,-3171.8zm-14422.6 -4408.3c0,115.7 -93.9,209.6 -209.6,209.6 -115.8,0 -209.7,-93.8 -209.7,-209.6 0,-115.7 93.9,-209.6 209.7,-209.6 115.8,0 209.6,93.8 209.6,209.6zm7331.3 2899.1c0,154.9 -125.6,280.5 -280.5,280.5 -154.9,0 -280.5,-125.6 -280.5,-280.5 0,-154.9 125.6,-280.5 280.5,-280.5 154.9,-0 280.5,125.6 280.5,280.5zm-280.5 167.3c-4.5,0 -8.8,-1.7 -11.9,-4.9 -3.2,-3.2 -4.9,-7.4 -4.9,-12 0,-2.2 0.5,-4.3 1.3,-6.4 0.8,-2 2,-3.8 3.5,-5.4 1.5,-1.7 3.4,-2.9 5.5,-3.7 4,-1.7 8.7,-1.7 12.8,0 2,0.9 3.9,2 5.5,3.7 3,3 4.9,7.4 4.9,11.7 0,4.6 -1.7,8.8 -4.9,12 -3.2,3.2 -7.6,4.9 -11.9,4.9zm-0 -94.8c-9.3,0 -16.8,-7.5 -16.8,-16.8l0 -210.1c0,-9.3 7.5,-16.8 16.8,-16.8 9.3,-0 16.8,7.5 16.8,16.8l0 210.1c0,9.3 -7.5,16.8 -16.8,16.8zm-8181.1 -4820.5c0,88.7 -71.9,160.5 -160.5,160.5 -88.6,0 -160.5,-71.8 -160.5,-160.5 0,-88.6 71.9,-160.5 160.5,-160.5 88.6,-0 160.5,71.9 160.5,160.5zm1310.5 4610.4l-779.5 0c-29.3,0 -53.1,23.7 -53.1,52.9l0 233.4c0,199.3 162,360.8 361.7,360.8l162.2 -0c199.8,0 361.7,-161.5 361.7,-360.8l0 -233.4c0,-29.2 -23.7,-52.9 -53,-52.9zm-309.9 217.2c0,-44 -35.8,-79.7 -79.9,-79.7 -44.1,0 -79.9,35.7 -79.9,79.7 0,30.2 16.8,56.4 41.6,70l0 153.6c0,21.1 17.2,38.2 38.3,38.2 21.2,-0 38.3,-17.1 38.3,-38.2l0 -153.6c24.8,-13.5 41.6,-39.8 41.6,-69.9zm236.1 -279c-18,0 -32.6,-14.5 -32.6,-32.5l0 -109.6c0,-128.4 -104.7,-232.8 -233.4,-232.8l-100.1 -0c-128.7,0 -233.4,104.5 -233.4,232.8l0 109.6c0,17.9 -14.6,32.5 -32.6,32.5 -18,0 -32.6,-14.5 -32.6,-32.5l0 -109.6c0,-164.2 133.9,-297.8 298.5,-297.8l100.1 -0c164.6,0 298.5,133.6 298.5,297.8l0 109.6c0,17.9 -14.6,32.5 -32.5,32.5zm-316 -2366.9c-252.2,0 -466.8,-4.1 -546.7,220.7 79.9,224.7 294.4,385.7 546.7,385.7 252.2,0 466.7,-161 546.6,-385.7 -79.9,-224.8 -294.4,-220.7 -546.6,-220.7z"/>
   <path class="fil2" d="M7320.9 12694.4l188.4 0 -320.8 -1181.2c-2.4,-8.9 2.9,-18.2 11.8,-20.6 9,-2.5 18.2,2.9 20.6,11.8l323.2 1190 153.8 0c-122.9,-1048.3 -295.2,-1664.9 -512.7,-1833.2 -46.6,-36 -93.7,-50 -143.9,-42.5 -23.2,3.4 -42.2,16.8 -58.1,41 -100.1,152 -32.9,645.5 72,1039.8 85.6,321.9 197.4,622.5 265.8,794.9zm624.8 -10537.3l-766.2 0c-0,-250.5 -184.1,-470.8 -439.4,-508.8 -136,-20.2 -271.8,13.6 -382.3,95.4 -110.5,81.8 -182.4,201.7 -202.6,337.6 -3.8,25.5 -5.6,50.8 -5.6,75.8l-766.2 0c-45.2,-53.3 -68.1,-125 -57.1,-199.3 9.8,-66.3 45,-124.8 98.9,-164.8 53.9,-39.9 120.2,-56.4 186.6,-46.6 9.1,1.4 18.9,3.5 29.9,6.5 8.2,2.3 16.8,-1.9 20,-9.8 41.1,-99.7 96.7,-192.3 165.2,-275.3 5.4,-6.6 5.1,-16.1 -0.8,-22.3 -7.9,-8.3 -14.4,-15.9 -19.8,-23.3 -40,-53.9 -56.6,-120.2 -46.8,-186.5 9.9,-66.3 45,-124.8 98.9,-164.7 111.3,-82.4 269.1,-58.9 351.7,52.4 5.5,7.4 10.9,15.8 16.5,25.7 4.2,7.4 13.3,10.5 21.1,7.2 99.4,-41.3 204.3,-67.5 311.8,-77.8 8.5,-0.8 15,-7.8 15.2,-16.3 0.3,-11.6 1.1,-21.3 2.5,-30.5 9.8,-66.3 45,-124.8 98.9,-164.8 53.9,-39.9 120.2,-56.5 186.6,-46.6 137.1,20.4 232.1,148.5 211.8,285.4 -1.3,9.1 -3.5,18.8 -6.5,29.9 -2.3,8.2 2,16.8 9.8,20 99.8,41.1 192.6,96.7 275.8,165.3 6.5,5.4 16.1,5.1 22.3,-0.8 8.2,-7.8 15.8,-14.2 23.3,-19.8 111.3,-82.4 269.1,-58.9 351.7,52.4 40,53.9 56.6,120.2 46.8,186.5 -9.9,66.3 -45,124.8 -98.9,164.7 -7.4,5.5 -15.8,10.9 -25.7,16.5 -7.4,4.2 -10.5,13.2 -7.2,21.1 41.5,99.3 67.8,204.2 78.1,311.6 0.8,8.5 7.8,15 16.3,15.2 11.6,0.3 21.3,1.1 30.5,2.4 62.7,9.3 116.6,41.2 154.7,86.2zm10909.8 3632.1l-209.6 -114.8c-1052.9,-576.5 -1288.5,-1640.9 -1389.2,-2835l77.9 -12.1c710.7,-49.6 1058.6,-168.6 1520.9,-688.4 551.8,499.9 1078.5,682.3 1595.1,682.3l5.2 1c-95.4,1203.6 -335.4,2277.9 -1397.4,2856.4l-202.9 110.5zm-9628 -977.4c0,154.9 -125.6,280.5 -280.5,280.5 -154.9,0 -280.5,-125.6 -280.5,-280.5 0,-154.9 125.6,-280.5 280.5,-280.5 154.9,-0 280.5,125.6 280.5,280.5zm-296.9 128.5c-4.1,0 -8.2,-1.5 -11.3,-4.3l-109.5 -98.9c-6.9,-6.2 -7.4,-16.9 -1.2,-23.8 6.2,-6.9 16.9,-7.4 23.7,-1.2l95.3 86.2 131.3 -187.7c5.3,-7.6 15.8,-9.4 23.4,-4.1 7.6,5.3 9.5,15.8 4.1,23.4l-142.2 203.3c-2.8,4 -7.1,6.5 -11.9,7.1 -0.6,0.1 -1.3,0.1 -1.9,0.1zm9925.7 574c-8.9,0 -17.7,-4.8 -22.2,-13.2 -6.6,-12.2 -2.2,-27.6 10.1,-34.2l167.1 -91c606.1,-330.2 938,-880 1075.9,-1782.8 2.2,-13.8 15.1,-23.3 28.8,-21.1 13.8,2.1 23.2,15 21.2,28.7 -140.6,919.8 -480.4,1481 -1101.7,1819.5l-167 91c-3.9,2.1 -8.1,3.1 -12.1,3.1zm-441.1 -270.1c-5.4,0 -11,-1.7 -15.5,-5.3 -622.7,-484.3 -804.1,-1220.1 -884.7,-2175.9 -1,-13.2 8.2,-25 21.4,-27.1l64.1 -10c0.7,-0.1 1.3,-0.2 2.2,-0.2 555.1,-38.7 849.3,-124.9 1234.7,-558.2 4.4,-5 10.8,-8.1 17.5,-8.4 6.7,-0.3 13.3,2 18.3,6.5 412.2,373.5 836.2,555.1 1296,555.1 1.7,-0 3.5,0.2 5.2,0.5l4.2 0.9c13.6,2.8 22.4,16.2 19.5,29.8 -2.9,13.6 -16.1,22.4 -29.8,19.6l-1.7 -0.4c-465,-0.7 -893.3,-181.1 -1308.6,-551.3 -388.6,429.9 -690,516.9 -1250.9,556.1l-39.9 6.2c80.4,931.1 260.1,1647.7 863.3,2116.8 11.1,8.5 13,24.4 4.5,35.4 -5,6.4 -12.4,9.7 -20,9.7zm-10612.7 7450.1l242.2 -0 -12.9 -2467c-0.1,-9.3 7.4,-16.9 16.7,-16.9 0,0 0.1,0 0.1,0 9.3,0 16.8,7.5 16.8,16.8l12.9 2467.1 168.3 0c137.2,-1186.9 157.7,-2039.2 60.8,-2534.8 -53.7,-274.6 -140.9,-425.6 -258.9,-448.8 -34.2,-6.7 -123.3,-14.3 -209.9,60.9 -87.2,75.7 -186.7,251.1 -165.3,656.9 28.2,536.6 103.1,1819.5 129.3,2265.8zm477.9 -0l154 0c64.4,-127.9 157.8,-335.8 245.9,-607.1 131.9,-405.9 276.1,-1038.6 214.3,-1747.3 -12.3,-141.5 -135.3,-247.7 -273.9,-235.6l-6.8 0.6c-101.2,9.7 -186.2,79 -216.6,176.5 -7.9,25.5 -16.5,55 -25.4,88.9 56.7,512.1 26.9,1297.2 -91.5,2324zm51.7 -143.5c-1.3,0 -2.6,-0.1 -3.9,-0.5 -9,-2.2 -14.6,-11.3 -12.4,-20.3 142.6,-593.6 235.3,-1203.4 275.8,-1812.6 0.6,-9.3 8.4,-16.2 17.9,-15.7 9.3,0.6 16.3,8.6 15.7,17.9 -40.6,611 -133.6,1222.8 -276.6,1818.2 -1.9,7.7 -8.7,12.9 -16.3,12.9z"/>
   <path class="fil3" d="M19467.1 13939.1l-4249.4 0 -2086.7 0c-37.5,0 -75.1,-9.6 -106,-30.8 -72.5,-49.8 -97.6,-138.9 -69,-215.5 74.7,-156.5 229.1,-211.6 457.5,-211.6l385 0c-12.1,-59 -34.3,-118.4 -66.2,-175 -52.3,-93.1 -129.9,-181 -236.7,-268.5 -20.4,-16.6 -42.2,-33.7 -66.8,-44.5 -8.6,-3.7 -12.4,-13.6 -8.7,-22.1 3.9,-8.5 13.8,-12.4 22.2,-8.7 28.4,12.4 52.5,31.2 74.5,49.3 110.4,90.2 190.4,181.2 244.8,278 34.8,61.9 58.8,126.9 71.2,191.5l440 0c-17.4,-92 -41.5,-188.6 -78.5,-281 -58.5,-146.9 -144.7,-266.8 -249,-346.8 -7.4,-5.6 -8.7,-16.2 -3,-23.6 5.6,-7.4 16.1,-8.8 23.6,-3.1 109,83.7 198.8,208.5 259.7,360.9 38.7,97 63.6,197.9 81.5,293.5l390.6 0c-1.9,-472.4 -305.4,-761.3 -308.7,-764.4 -6.7,-6.3 -7.1,-17 -0.8,-23.8 6.4,-6.8 17,-7.2 23.9,-0.9 3.4,3.2 317.4,301.5 319.4,789l648.7 0 890.6 -2512.8c78.4,-221 287.5,-368.7 522.2,-368.7l3894.1 0c80.4,0 155.6,39.8 200.7,106.3 45.3,66.5 54.4,151 24.6,225.7l-1121.7 2812.6c-46.8,117.6 -160.8,194.8 -287.5,194.8l-35.8 0zm127 -413.5l-3860.8 0c-9.2,0 -16.8,-7.5 -16.8,-16.8 0,-9.3 7.6,-16.8 16.8,-16.8l3860.8 0c9.3,0 16.8,7.5 16.8,16.8 0,9.3 -7.6,16.8 -16.8,16.8zm-10366.6 -5642.1l-6298.7 0c-9.3,0 -16.8,-7.5 -16.8,-16.8 0,-9.3 7.5,-16.8 16.8,-16.8l6298.7 0c9.3,0 16.8,7.5 16.8,16.8 0,9.3 -7.5,16.8 -16.8,16.8zm0 -2530.2l-6298.7 0c-9.3,0 -16.8,-7.5 -16.8,-16.8 0,-9.3 7.5,-16.8 16.8,-16.8l6298.7 -0c9.3,0 16.8,7.5 16.8,16.8 0,9.3 -7.5,16.8 -16.8,16.8zm4553 1281.1c0.9,135.8 18,317.1 90.8,442 126.6,217.5 503.3,-3.8 915.6,121.6 90.7,-200.8 164.4,-432.3 230.8,-661.4 -77.7,33 -187.2,41.9 -294,48 -184.9,10.6 -455,-36.6 -713.9,-311.2 18.5,126.6 -34,252.9 -139.8,322.8 -24.1,16 -52.4,30.8 -89.4,38.2zm1038.6 574.1c1.2,0.4 2.3,0.8 3.5,1.2 0,-0 -225.3,662.9 -372.1,773.8 -51.8,39 -164.8,45.5 -298.2,19.8l-8.2 31.5c-11.9,45.8 -2.9,94.2 24.6,132.7 27.4,38.6 70.3,62.9 117.6,66.7l50.3 4.1c-4.2,11 -8.7,21.9 -13.4,32.7l-39.6 -3.2c-57.2,-4.6 -109,-34.1 -142.3,-80.7 -33.3,-46.7 -44.1,-105.2 -29.8,-160.6l7.8 -30c-340.5,-77.2 -787.6,-354 -709.1,-823.3l-0.5 -4.1c-100.3,-29.2 -179.9,-82.3 -234,-153.3l-361.7 1056.6c-30.2,88.2 -105.8,154 -197.3,171.8l-48.8 9.5c-4.3,-10.6 -8.2,-21.3 -11.6,-32l54 -10.5c79.7,-15.5 145.6,-72.8 171.9,-149.6l369.9 -1080.6c-38.9,-64.7 -59.1,-141.6 -57.8,-226.9 0.3,-16.8 1.4,-33.5 3.4,-49.9 -36.8,-82.3 -71.1,-179.8 -106.4,-289.5 -21.1,-65.6 -54.6,-151.8 -45.1,-271.4 19,-237.4 190.7,-395.4 212.3,-414.7 161.6,-144.5 284.1,-92.9 624.9,-178.4 518.1,-130 602.4,-341.4 1004.8,-333.3 106.5,2.1 239.9,6.4 379.3,87.4 202.7,117.9 386.7,380.1 343.2,677.9 -38.9,265.9 -243.5,453.7 -451.2,532 -68.8,239.6 -145.2,483.3 -240.3,694.7zm-1387.9 -68.6c51.5,-76.7 180.2,-297.6 136,-532.9l2 -1.5c-2.7,-2.9 -4.3,-6.8 -4.4,-10.9 0,-1.1 -3.2,-106.6 -71,-159 -25.6,-19.8 -57.7,-29.7 -95.6,-29.7 -19.8,0 -41.4,2.7 -64.4,8.2 -113,26.6 -203.5,176.1 -206,340.1 -3,189.5 109.9,333.5 301.9,385.2 0.5,0.1 1,0.3 1.4,0.5zm38.8 -189.2c-0.2,0 -0.2,0 -0.3,0 -9.2,-0.2 -16.6,-7.8 -16.5,-17.1 0.5,-38 1.2,-77.3 -9.1,-113.5 -10.9,-38.2 -33.5,-67.3 -62.1,-79.8 -8.6,-3.7 -12.4,-13.6 -8.7,-22.2 3.9,-8.5 13.8,-12.4 22.2,-8.6 37.9,16.6 67.3,53.6 80.9,101.4 11.6,40.9 11.1,82.8 10.4,123.2 -0.2,9.2 -7.7,16.6 -16.8,16.5zm-6806.7 -5274.5c-102.4,0 -201.6,32.5 -285.3,94.5 -103.2,76.4 -170.5,188.5 -189.3,315.5 -3.5,23.8 -5.2,47.5 -5.2,70.9l-33.6 0c-0,-25 1.8,-50.3 5.6,-75.8 20.2,-135.9 92.1,-255.8 202.6,-337.6 110.5,-81.8 246.2,-115.6 382.3,-95.4 255.3,38 439.4,258.3 439.4,508.8l-33.7 0c-0,-234.2 -172.1,-440 -410.7,-475.5 -24,-3.6 -48.1,-5.4 -72,-5.4zm1282.5 480.9c-38.1,-44.9 -92,-76.8 -154.7,-86.2 -9.2,-1.4 -18.9,-2.2 -30.5,-2.4 -8.5,-0.3 -15.5,-6.8 -16.3,-15.2 -10.3,-107.4 -36.6,-212.2 -78.1,-311.6 -3.3,-7.9 -0.2,-16.9 7.2,-21.1 9.9,-5.6 18.3,-11 25.7,-16.5 53.9,-39.9 89,-98.4 98.9,-164.7 9.9,-66.4 -6.8,-132.6 -46.8,-186.5 -82.6,-111.3 -240.4,-134.8 -351.7,-52.4 -7.5,5.5 -15.1,12 -23.3,19.8 -6.2,5.8 -15.7,6.2 -22.3,0.8 -83.1,-68.6 -175.9,-124.2 -275.8,-165.3 -7.8,-3.2 -12.1,-11.8 -9.8,-20 3,-11 5.1,-20.8 6.5,-29.9 20.3,-137 -74.7,-265 -211.8,-285.4 -66.4,-9.9 -132.7,6.6 -186.6,46.6 -53.9,39.9 -89,98.4 -98.9,164.8 -1.4,9.2 -2.2,18.9 -2.5,30.5 -0.2,8.5 -6.8,15.5 -15.2,16.3 -107.5,10.3 -212.4,36.5 -311.8,77.8 -7.8,3.3 -16.9,0.2 -21.1,-7.2 -5.6,-9.9 -11,-18.3 -16.5,-25.7 -82.6,-111.3 -240.4,-134.8 -351.7,-52.4 -53.9,39.9 -89,98.4 -98.9,164.7 -9.9,66.3 6.7,132.6 46.8,186.5 5.5,7.4 12,15 19.8,23.3 5.8,6.2 6.2,15.7 0.8,22.3 -68.6,83 -124.2,175.6 -165.2,275.3 -3.2,7.9 -11.8,12.1 -20,9.8 -11,-3 -20.8,-5.1 -29.9,-6.5 -66.4,-9.9 -132.7,6.7 -186.6,46.6 -53.9,39.9 -89,98.4 -98.9,164.8 -11,74.3 11.9,146 57.1,199.3l-42.4 0c-40,-57.5 -59,-129.7 -48,-204.2 11.2,-75.2 51,-141.6 112.1,-186.9 61.2,-45.3 136.3,-64 211.6,-52.8 6.2,0.9 12.7,2.2 19.5,3.7 39.8,-93.2 92.1,-180.3 155.5,-259.2 -4.6,-5.2 -8.7,-10.4 -12.5,-15.4 -45.4,-61.2 -64.2,-136.3 -53,-211.6 11.2,-75.2 51,-141.5 112.1,-186.8 126.2,-93.4 305.1,-66.8 398.7,59.4 3.8,5 7.5,10.5 11.2,16.4 94,-37.7 192.6,-62.3 293.5,-73.2 0.5,-7 1.2,-13.5 2.1,-19.7 11.2,-75.2 51,-141.6 112.2,-186.9 61.2,-45.3 136.3,-64 211.6,-52.8 155.4,23.1 263.2,168.3 240.1,323.6 -0.9,6.2 -2.1,12.7 -3.7,19.5 93.4,39.9 180.6,92.2 259.6,155.6 5.2,-4.5 10.4,-8.6 15.4,-12.4 126.3,-93.5 305.1,-66.8 398.7,59.4 45.4,61.1 64.2,136.3 53,211.5 -11.2,75.2 -51,141.6 -112.1,186.8 -5.1,3.8 -10.5,7.4 -16.4,11.1 37.8,93.9 62.5,192.5 73.5,293.3 7,0.5 13.4,1.2 19.7,2.1 80.9,12 148.8,57.1 192.1,119.4l-42.3 0zm3200.7 -736.3c-117.7,0 -235.2,24.8 -345.9,74.3 -206.8,92.5 -365.3,259.9 -446.2,471.6 -24,62.7 -39.9,126.6 -48.5,190.4l-33.9 0c8.7,-67.9 25.5,-135.7 50.9,-202.4 84.1,-220 248.8,-394.2 463.9,-490.3 215.1,-96.1 454.7,-102.8 674.7,-18.7 220,84.1 394.2,248.8 490.3,463.9 35.7,79.9 59.1,163.1 70,247.5l-34 0c-10.8,-79.7 -33,-158.3 -66.8,-233.8 -92.5,-206.9 -259.9,-365.3 -471.6,-446.2 -98.4,-37.6 -200.8,-56.3 -303.1,-56.3zm1792.8 1980.6c60.5,-0.8 120.7,-13.9 177.6,-39.3 109.5,-48.9 193.4,-137.6 236.1,-249.6 88.5,-231.3 -27.8,-491.3 -259.1,-579.7 -15.5,-5.9 -32.5,-11.2 -52.2,-16.1 -8.2,-2.1 -13.7,-9.9 -12.6,-18.4 22.9,-187.3 17.7,-376.3 -15.5,-561.7 -1.5,-8.4 3.5,-16.6 11.6,-19.1 19.4,-6 36.2,-12.2 51.2,-18.9 109.5,-48.9 193.4,-137.6 236.2,-249.6 42.9,-112 39.5,-234 -9.5,-343.5 -48.9,-109.5 -137.6,-193.4 -249.6,-236.2 -112.1,-42.9 -234,-39.5 -343.5,9.5 -15.1,6.8 -30.9,15.1 -48.2,25.6 -7.3,4.3 -16.7,2.6 -21.9,-4.1 -115.9,-148.4 -253.3,-278.3 -408.2,-386.2 -7,-4.8 -9.2,-14.1 -5.3,-21.6 9.6,-18.2 16.9,-34 22.9,-49.6 42.8,-112 39.4,-234 -9.5,-343.5 -48.9,-109.5 -137.6,-193.4 -249.6,-236.1 -231.3,-88.4 -491.3,27.9 -579.7,259.1 -6,15.6 -11.1,32.2 -16.1,52.2 -2.1,8.2 -10,13.8 -18.4,12.6 -187.3,-22.9 -376.3,-17.7 -561.8,15.6 -8.3,1.5 -16.5,-3.5 -19,-11.6 -6,-19.4 -12.2,-36.2 -18.9,-51.2 -101,-226 -367.1,-327.7 -593.1,-226.7 -109.5,48.9 -193.4,137.6 -236.2,249.6 -42.8,112 -39.4,234 9.5,343.5 6.7,15.1 15.1,30.9 25.5,48.2 4.4,7.3 2.6,16.7 -4.1,21.9 -148.4,116 -278.4,253.4 -386.2,408.2 -4.9,7 -14.2,9.2 -21.7,5.3 -18.2,-9.6 -34,-16.9 -49.6,-22.9 -231.2,-88.4 -491.3,27.9 -579.7,259.2 -42.8,112 -39.4,234 9.5,343.5 48.9,109.5 137.6,193.4 249.6,236.2 15.5,5.9 32.1,11.1 52.2,16.1 8.3,2.1 13.7,9.9 12.6,18.4 -4.8,38.8 -8.3,77.7 -10.6,116.6l-33.7 0c2.1,-35.4 5.2,-70.7 9.2,-106 -15.3,-4.2 -28.8,-8.6 -41.7,-13.5 -120.4,-46 -215.7,-136.2 -268.3,-253.8 -52.6,-117.7 -56.2,-248.8 -10.2,-369.2 95,-248.6 374.5,-373.5 623.1,-278.6 12.8,4.9 26,10.7 40.1,17.8 105.2,-148.7 230.6,-281.3 373.1,-394.4 -7.8,-13.7 -14.4,-26.5 -19.9,-39 -52.6,-117.7 -56.3,-248.8 -10.2,-369.3 46,-120.4 136.2,-215.7 253.9,-268.3 242.9,-108.6 529,0.7 637.6,243.6 5.6,12.5 10.8,25.9 15.8,40.9 179.3,-30.7 361.7,-35.8 542.7,-15 4.2,-15.2 8.6,-29 13.5,-41.7 95,-248.6 374.5,-373.5 623.1,-278.6 120.4,46 215.7,136.2 268.3,253.9 52.6,117.7 56.3,248.8 10.2,369.2 -4.9,12.8 -10.7,26 -17.7,40.1 148.8,105.3 281.3,230.7 394.4,373.1 13.6,-7.8 26.5,-14.4 39,-20 117.7,-52.6 248.8,-56.2 369.3,-10.2 120.4,46 215.7,136.2 268.4,253.9 52.6,117.7 56.3,248.8 10.2,369.2 -46,120.4 -136.2,215.7 -253.9,268.3 -12.5,5.6 -26,10.8 -40.9,15.8 30.8,179.3 35.8,361.7 15,542.7 15.1,4.1 28.9,8.6 41.7,13.5 248.6,95 373.6,374.5 278.6,623.1 -46,120.4 -136.2,215.7 -253.8,268.3 -61.3,27.4 -126.2,41.5 -191.3,42.2l0 -33.7zm5916.3 6878.7c-9.3,0 -16.8,-7.5 -16.8,-16.8l0 -4137.7c0,-9.3 7.6,-16.8 16.8,-16.8 9.3,0 16.8,7.5 16.8,16.8l0 4137.7c0,9.3 -7.6,16.8 -16.8,16.8zm-8537 1693.3c-9.1,0 -16.6,-7.3 -16.8,-16.5 -0.2,-9.3 7.2,-17 16.5,-17.1l2480.1 -47c9.2,-0.6 17,7.2 17.1,16.5 0.2,9.3 -7.2,17 -16.5,17.1l-2480.1 47c-0.1,0 -0.2,0 -0.3,0zm828.2 -140.6c-1.6,0 -3.2,-0.2 -4.9,-0.7 -8.9,-2.7 -13.9,-12.1 -11.3,-21 90.3,-300.4 214.8,-590.9 370.2,-863.4 32,-56 83.5,-130 160.8,-127.7 9.3,0.3 16.5,8.1 16.2,17.4 -0.3,9.3 -8,17 -17.4,16.3 -59.5,-1.3 -102.8,62.3 -130.4,110.8 -154.1,270.3 -277.6,558.4 -367.2,856.4 -2.2,7.3 -8.9,12 -16.1,12zm-5057 1868.9l-1019.3 0c-9.3,0 -16.8,-7.4 -16.8,-16.8 0,-9.2 7.5,-16.8 16.8,-16.8l1019.3 0c9.3,-0 16.8,7.5 16.8,16.8 0,9.4 -7.5,16.8 -16.8,16.8zm14837.3 277.2l-12455.4 0 -5549.8 0 -415.2 0c-9.3,0 -16.8,-7.6 -16.8,-16.8 0,-9.3 7.5,-16.8 16.8,-16.8l327.9 0c-26.4,-23.8 -43,-58.3 -43,-96.6l0 -622.2c0,-48.6 26.8,-91.1 66.3,-113.5 -39.6,-22.4 -66.3,-64.8 -66.3,-113.4l0 -547.7c0,-71.8 58.5,-130.3 130.3,-130.3l4226.5 0c-43,-127 -86.9,-268.1 -125.6,-413.5 -110.3,-414.7 -173.9,-905.4 -67.5,-1066.9 21.2,-32.2 48.6,-51 81.3,-55.8 59,-8.7 116,7.9 169.4,49.2 225,174.1 401.8,799.6 526,1859.8l37 0c-26.3,-448 -101,-1728.1 -129.2,-2264 -22,-419.4 84,-603.5 176.9,-684.1 97.8,-84.9 199.3,-76.2 238.4,-68.5 152.6,29.9 255,237 306.3,606.6 1.3,-4.4 2.7,-8.8 4,-13 34.4,-110.5 130.7,-189 245.5,-200l7.4 -0.7c156.9,-13.2 296.2,106.4 310.1,266.3 63,722.3 -85.9,1366.3 -221.9,1779.3 -81.6,247.7 -169.1,447.2 -234,578l57.5 0c40.8,0 79.3,17.8 105.7,48.8 26.4,31 37.9,71.9 31.4,112.1l-175.6 1090 12435.6 0c9.3,0 16.8,7.6 16.8,16.8 0,9.3 -7.6,16.8 -16.8,16.8zm-18005.2 -33.6l4365.7 0 -16 -99.1 -2445.8 0c-93.9,0 -170.2,-76.4 -170.2,-170.3l0 -276.7c0,-93.9 76.4,-170.2 170.2,-170.2l2346.4 0 -16 -99.2 -4234.3 0c-53.3,-0 -96.6,43.4 -96.6,96.6l0 622.2c0,53.1 43.4,96.6 96.6,96.6zm4399.8 0l1135.7 0 176.5 -1095.4c4.9,-30.5 -3.8,-61.5 -23.8,-85 -20,-23.5 -49.2,-37 -80.1,-37l-1280.9 0c-30.9,0 -60.1,13.5 -80.1,37 -20,23.5 -28.7,54.4 -23.8,85l176.5 1095.4zm-55.5 -132.7l-88.6 -549.9 -2351.8 0c-75.3,0 -136.6,61.3 -136.6,136.6l0 276.7c0,75.2 61.3,136.6 136.6,136.6l2440.4 0zm-115.4 -716.3l-16 -99.1 -2309 0c-93.9,-0 -170.2,-76.4 -170.2,-170.2l0 -202.3c0,-93.9 76.4,-170.2 170.2,-170.2l2368.8 0c-11.4,-31.8 -23,-64.9 -34.8,-99.1l-4237.9 0c-53.3,0 -96.6,43.4 -96.6,96.6l0 547.7c0,53.3 43.4,96.6 96.6,96.6l4228.9 0zm-21.4 -132.8l-17.4 -108.2c-6.5,-40.2 4.9,-81.1 31.4,-112.1 26.4,-31 65,-48.8 105.7,-48.8l35.8 0c-22.5,-57.1 -49.3,-127.1 -78.1,-206.3l-2380.9 -0c-75.3,0 -136.6,61.3 -136.6,136.6l0 202.3c0,75.3 61.3,136.6 136.6,136.6l2303.6 -0zm191.6 -269.1l188.4 0 -320.8 -1181.2c-2.4,-8.9 2.9,-18.2 11.8,-20.6 9,-2.5 18.2,2.9 20.6,11.8l323.2 1190 153.8 0c-122.9,-1048.3 -295.2,-1664.9 -512.7,-1833.2 -46.6,-36 -93.7,-50 -143.9,-42.5 -23.2,3.4 -42.2,16.8 -58.1,41 -100.1,152 -32.9,645.5 72,1039.8 85.6,321.9 197.4,622.5 265.8,794.9zm481.6 0l242.2 -0 -12.9 -2467c-0.1,-9.3 7.4,-16.9 16.7,-16.9 0,0 0.1,0 0.1,0 9.3,0 16.8,7.5 16.8,16.8l12.9 2467.1 168.3 0c137.2,-1186.9 157.7,-2039.2 60.8,-2534.8 -53.7,-274.6 -140.9,-425.6 -258.9,-448.8 -34.2,-6.7 -123.3,-14.3 -209.9,60.9 -87.2,75.7 -186.7,251.1 -165.3,656.9 28.2,536.6 103.1,1819.5 129.3,2265.8zm477.9 -0l154 0c64.4,-127.9 157.8,-335.8 245.9,-607.1 131.9,-405.9 276.1,-1038.6 214.3,-1747.3 -12.3,-141.5 -135.3,-247.7 -273.9,-235.6l-6.8 0.6c-101.2,9.7 -186.2,79 -216.6,176.5 -7.9,25.5 -16.5,55 -25.4,88.9 56.7,512.1 26.9,1297.2 -91.5,2324zm51.7 -143.5c-1.3,0 -2.6,-0.1 -3.9,-0.5 -9,-2.2 -14.6,-11.3 -12.4,-20.3 142.6,-593.6 235.3,-1203.4 275.8,-1812.6 0.6,-9.3 8.4,-16.2 17.9,-15.7 9.3,0.6 16.3,8.6 15.7,17.9 -40.6,611 -133.6,1222.8 -276.6,1818.2 -1.9,7.7 -8.7,12.9 -16.3,12.9zm-2762.2 886.3l-722.4 0c-9.3,0 -16.8,-7.5 -16.8,-16.8 0,-9.3 7.5,-16.8 16.8,-16.8l722.4 -0c9.3,0 16.8,7.5 16.8,16.8 0,9.3 -7.5,16.8 -16.8,16.8z"/>
  </g>
 </g>
</svg>
