<?xml version="1.0" encoding="UTF-8"?>
<!DOCTYPE svg PUBLIC "-//W3C//DTD SVG 1.1//EN" "http://www.w3.org/Graphics/SVG/1.1/DTD/svg11.dtd">
<!-- Creator: CorelDRAW 2020 (64-Bit) -->
<svg xmlns="http://www.w3.org/2000/svg" xml:space="preserve" width="124.4mm" height="98.5929mm" version="1.1" style="shape-rendering:geometricPrecision; text-rendering:geometricPrecision; image-rendering:optimizeQuality; fill-rule:evenodd; clip-rule:evenodd"
viewBox="0 0 23159.6 18355"
 xmlns:xlink="http://www.w3.org/1999/xlink"
 xmlns:xodm="http://www.corel.com/coreldraw/odm/2003">
 <defs>
  <style type="text/css">
   <![CDATA[
    .fil3 {fill:#434242}
    .fil0 {fill:#5894CF}
    .fil1 {fill:#5FAC6F}
    .fil2 {fill:#80749B}
   ]]>
  </style>
 </defs>
 <g id="Слой_x0020_1">
  <metadata id="CorelCorpID_0Corel-Layer"/>
  <g id="_2633057167376">
   <path class="fil0" d="M12336.3 5262.6l-2676.9 -657.5 -350 470.5 85.8 0c109.1,0 185.4,110.1 144.7,211.3 -44.9,111.5 -164.8,226.4 -468,231 -33,0.5 -64.1,1.4 -93.6,2.7l-930.2 1250.4c161.4,288.3 298.7,549 383.9,712.9 413.6,-262.6 818.9,-437.5 1184.2,-695.9l3.1 5.4c47.7,-27.2 613.9,-350.9 811.6,-465.3 206.5,-119.5 526.8,-717.1 689.9,-722.5 163.1,-5.4 222.8,103.2 212,244.5 -11,141.2 -87.8,390.5 -87.8,390.5 0,0 193.5,-14 390.1,-35.3l701.2 -942.5zm-454.9 1771.4l8069.9 0c29,-177.9 209.2,-158.8 425.3,-158.8l767.4 -0 873.7 -6745.5c9.1,-68.8 -44.7,-129.8 -114,-129.8l-10001 0c-58,0 -106.7,42.9 -114.2,100.2l-594.9 4592.7 348.7 85.7 572.8 -4421.7 9513.4 0 -818.7 6320.3 -8726.1 0c0.4,66.3 -14.1,150.3 -72,226.7 -44.4,58.5 -90.3,100.5 -130.5,130.2z"/>
   <path class="fil1" d="M17146.9 2223.6c-35.6,0 -60.9,-28.8 -56.7,-64.3l26.5 -217.1c31.2,-254.2 -150.9,-461.1 -405.8,-461.1l-198.2 0c-254.9,0 -487.5,206.8 -518.7,461.1l-26.5 217.1c-4.4,35.5 -36.8,64.3 -72.4,64.3 -35.6,0 -60.8,-28.8 -56.6,-64.3l26.6 -217.1c39.8,-325.1 337.4,-589.7 663.3,-589.7l198.5 0c325.9,0 558.7,264.5 518.9,589.7l-26.5 217.1c-4.4,35.5 -36.8,64.3 -72.3,64.3zm-535.2 552.6c10.6,-87.2 -51.6,-157.9 -139,-157.9 -87.4,0 -166.8,70.7 -177.5,157.9 -7.3,59.7 19.5,111.7 65.3,138.5l-37.1 304.2c-5.1,41.8 24.7,75.7 66.6,75.7 42.1,0 80.1,-33.9 85.2,-75.7l37.2 -304.3c52.4,-26.8 92,-78.8 99.4,-138.5zm-7070.8 4085.6c-10.9,5.9 -222.1,116.9 -225.9,119.1 -281.6,165.5 -580.1,310.8 -882.9,503.1 -275,-529.4 -1094.8,-2069.3 -1511.7,-2286.7 -507.1,-264.4 -1406.1,-260 -1977.5,-281.2 -454.9,-17 -962.3,6.1 -1284.5,327.9 -139.8,139.8 -227.9,321.7 -313.5,500 -69.1,143.8 -245.5,511.2 -471.8,991 0,1440.2 267.6,3618 656.8,4579.8 79.6,196.6 369.2,418.1 466.3,562.5 1824.1,-110.4 2113.8,-1641.1 2133.2,-1703.9 164,-530.9 480.4,-1634.5 583.1,-2180.6l5.7 11.4c228.8,553.5 691.2,1230 1256.1,1429.7 564.7,199.6 1174.1,24.7 1673.9,-305.1 430.1,-283.6 832.4,-636.9 907.7,-709.4l-927.8 -1610 -87.1 52.7zm7737 -4515.7l-1543.6 0c-58.2,0 -110.9,46.9 -117.9,104.8l-56.6 462.2c-48.2,394.6 233.2,714.6 628.8,714.6l321.1 -0c395.6,0 755.6,-319.9 803.8,-714.6l56.7 -462.2c7.1,-57.9 -34.3,-104.8 -92.2,-104.8z"/>
   <path class="fil2" d="M14474.1 8702.8l76.5 -211.7c22.3,-61.6 80.7,-102.7 146.2,-102.7l1223.2 0 0 -1355.9 968.7 0 0 1355.9 1043.1 0 -14.1 320.7 -3443.6 -6.4zm-4479.3 -2335.6c51.8,-66 31.2,-134.4 -46,-152.9 -77.4,-18.4 -182.1,20.1 -233.9,86.1 -35.6,45.2 -37.2,91.6 -9.7,122.2l-181 230.4c-24.8,31.7 -14.8,64.5 22.1,73.3 37.2,8.8 87.4,-9.6 112.2,-41.3l181 -230.4c59.3,-10 119.7,-42.3 155.3,-87.5zm-483 484.1c10.1,-5.3 112.7,-61.8 116.7,-64.1 87.4,-49.9 613.4,-350.7 802.5,-460.1 59.1,-34.2 127.6,-107.7 199.1,-195.2l-1202 -286.6c-51.3,-12.2 -120.8,13.4 -155.3,57.2l-274.8 350c-234.8,298.8 -141.4,608.7 208.4,692.1l109.4 26.1 196.2 -119.4zm1198.9 -821.7c-6.9,-12.2 -4.8,-28.5 7.7,-44.5l129.2 -164.4c151.1,-192.5 90.9,-392.9 -134.5,-446.6l-175.5 -41.8c-225.5,-53.7 -531.9,59.1 -683.3,251.6l-129 164.4c-21.3,26.9 -64,42.6 -95.4,35.1 -31.4,-7.5 -39.8,-35.4 -18.8,-62.3l129.2 -164.4c193.4,-246.2 585.5,-390.6 873.8,-321.8l175.2 41.9c200.2,47.7 298.6,185.6 275.5,347.8 -97,59 -226.5,239.3 -354.2,405.1zm8529.8 -832l-582.1 0c-89.4,-0 -153.2,-72.6 -142.1,-162.1l71.5 -582.2c10.9,-89.5 92.5,-162.1 181.9,-162.1l582.2 0c89.6,0 153.1,72.6 142.2,162.1l-71.4 582.2c-11.1,89.5 -92.5,162.1 -182.1,162.1zm-5810.5 -465.1l69.3 -275.4 276.6 0 -7.1 43.2 -235.4 0 -51.3 191.3c31,-21 66.1,-31.2 105.8,-30.7 46.5,0.5 82.3,17.7 107.5,51.5 25,33.8 35.4,76.4 30.8,127.8 -5.3,57.8 -24.8,104.4 -58.8,139.8 -33.8,35.4 -77.4,52.6 -130.3,51.5 -45.7,-1 -81.9,-16 -108,-44.9 -25.8,-28.9 -38.9,-66.4 -38.9,-112.6l43.8 -0c0.7,36.6 10,65.1 28.1,85.8 18.2,20.6 44,31.4 77.4,32.5 39.4,1 71.5,-12.5 96.5,-40.5 24.8,-28 39.4,-65.1 43.6,-111.2 3.6,-39.9 -3.8,-72.6 -21.9,-97.8 -18.2,-25.3 -44.7,-38.4 -79.7,-39.5 -39.8,-1.1 -76.6,12.3 -110.4,40.1l-37.4 -10.9zm5728.2 299.1l-345.2 0 6 -37.7 244.9 -242.4c51.6,-52.1 79.9,-99 84.7,-140.8 4.2,-32.4 -2.2,-59.3 -19.5,-80.5 -17,-21.3 -42.3,-32.4 -75.7,-33.4 -36.2,-1.1 -67.7,10.4 -94.1,34.4 -26.3,24 -42.9,56.4 -49.6,97.1l-44.7 0.4c6.2,-50.6 26.8,-91.9 61.7,-124.1 35.2,-32.2 77.7,-48 128.1,-47.5 46.9,1 83.2,15.5 109.1,43.4 25.7,27.9 36.5,63.3 32.1,106.4 -5.3,51.1 -37.4,106.5 -96.5,166.1l-222.6 219.4 287.5 0 -6.4 39.3zm-1370.3 -425.8c-5.5,-73.6 -36.5,-111.3 -92.7,-113.2 -42,-1.3 -76.3,14.9 -103.1,48.4 -26.5,33.6 -44.7,82.2 -54.4,146l-17 109.7c-4,31.4 -5.1,59.3 -3.6,83.6 2,37 11.1,65.5 27,85.2 15.9,19.7 37.8,30 65.5,30.7 38.9,1.8 71.7,-12.8 98,-44 26.6,-31.1 45.4,-77.4 56.4,-138.9l18.8 -119.4c4.9,-31.6 6.6,-61.1 5.1,-88.3zm-181 429.4c-30.3,-0.8 -56,-8.8 -77,-24.1 -21,-15.3 -36.3,-37.7 -45.8,-67.1 -9.7,-29.4 -14,-62.3 -12.8,-98.6l2.7 -42 16.8 -110.4c12.2,-78.8 35.6,-138.8 70.4,-179.9 34.8,-41.1 80.1,-61 136.5,-59.7 45.8,1 80.3,17.9 103.1,50.8 23,32.8 33.6,78.6 32.1,137.5 -0.4,18.7 -1.8,36.7 -4.2,54.1l-15.5 100.3c-13.7,82.2 -38.1,143.1 -73.3,182.6 -34.9,39.5 -79.2,58.4 -132.9,56.6zm-1163 -432.1c3.1,-30.3 -4.5,-56.1 -22.4,-77.2 -18.2,-21.1 -42.7,-32.2 -73.7,-33.2 -35.8,-0.5 -66.2,10.4 -90.7,32.7 -24.6,22.3 -38.7,50.6 -42.5,84.8 -3.1,30.6 4.4,56 22.4,76.3 18.2,20.2 42.7,30.6 73.9,31.1 34.3,1 64.4,-9.4 89.8,-31.3 25.7,-21.9 40,-49.6 43.2,-83.1zm-32.8 271.1c3.5,-33.5 -4.9,-61.2 -25.5,-83.2 -20.6,-22 -48.2,-33.6 -82.8,-34.6 -39.8,-0.5 -73.7,11.2 -101.6,35 -27.8,23.8 -43.8,53.8 -47.8,89.8 -3.7,34 4.4,61.5 24.8,82.7 20.3,21.1 48.2,31.9 83.9,32.5 39.4,1 73,-9.8 101.1,-32.5 27.9,-22.7 43.8,-52.6 47.8,-89.7zm79.4 -270.7c-2.8,30.6 -14.1,57.4 -33.6,80.3 -19.7,22.9 -46.2,41.2 -79.7,54.7 27.5,12.7 48.2,31 62.2,54.8 14.2,23.8 20.1,50.7 17.9,80.5 -3.8,48.5 -24.1,87.8 -61.1,117.8 -36.7,30.1 -82.1,44.6 -136.1,43.6 -48.7,-1 -87.4,-15.5 -115.9,-43.6 -28.5,-28 -40.7,-65.1 -37,-111.2 2.9,-32.9 15.3,-61.9 37.4,-86.9 22.1,-25 52.2,-44.4 90.3,-58.2 -23.4,-12.4 -40.7,-29.7 -52.2,-51.7 -11.2,-22.1 -15.9,-46.4 -13.9,-73.1 3.3,-46.7 22.1,-84.8 56.2,-114.4 34.1,-29.6 75.9,-43.8 125.5,-42.8 44.5,1 79.9,15.4 106.2,43 26.1,27.6 37.4,63.3 33.8,107.1zm-1604.4 115.7l44.7 0.8c39.1,0 72.5,-10.2 99.7,-30.7 27.4,-20.5 42.9,-48.1 46.9,-82.8 3.5,-34.3 -3.3,-61.5 -20.8,-81.7 -17.5,-20.2 -42.9,-30.9 -76.3,-31.9 -35.8,-0.5 -66.2,9.8 -90.9,31.1 -24.7,21.3 -40.3,49.8 -46.9,85.6l-45.1 0.4c5.7,-46.4 25.8,-84.3 60.6,-113.6 34.6,-29.3 76.1,-43.7 124.6,-43.2 46.5,1 82.5,15.9 108.6,44.5 25.9,28.7 36.7,65.4 32.5,110.3 -2.2,28 -13.3,53.4 -32.7,76.2 -19.7,22.8 -46.7,41.1 -81.2,54.8 28.6,10.1 50,26.8 64.4,50.2 14.4,23.3 20.4,50.6 17.7,81.7 -4.2,49.5 -23.9,89.6 -59.5,120.2 -35.4,30.6 -79,45.4 -130.3,44.3 -48.2,-1.1 -87,-16.5 -115.9,-46.5 -29.2,-29.9 -42.1,-68.3 -38.5,-114.9l46.1 -0c-3.1,34.7 5.5,63.5 25.9,86.3 20.4,22.8 48.7,34.8 85,35.8 39,1 71.2,-9.8 97.1,-32.5 25.9,-22.7 40.7,-53.1 44.5,-91.2 3.1,-33.2 -4.7,-59.6 -23.5,-79.3 -18.6,-19.7 -47.1,-30.9 -85.6,-33.5l-7.9 -0.4 -49.1 -0.4 6.2 -39.7zm-1067.8 478.3l-582.1 0c-89.6,-0 -153.4,-72.6 -142.3,-162.1l71.5 -582.2c11.1,-89.5 92.5,-162.1 181.9,-162.1l582.4 0c89.4,0 153.1,72.6 142,162.1l-71.5 582.2c-11,89.5 -92.5,162.1 -181.9,162.1zm1353.1 0l-582.2 0c-89.6,-0 -153.1,-72.6 -142.3,-162.1l71.5 -582.2c11.1,-89.5 92.5,-162.1 182.1,-162.1l582.2 0c89.4,0 153.1,72.6 142,162.1l-71.4 582.2c-10.9,89.5 -92.5,162.1 -181.9,162.1zm1363 0l-582.1 0c-89.6,-0 -153.1,-72.6 -142.3,-162.1l71.5 -582.2c11.1,-89.5 92.5,-162.1 182.1,-162.1l582.2 0c89.4,0 153.1,72.6 142,162.1l-71.5 582.2c-10.9,89.5 -92.5,162.1 -181.9,162.1zm1353.1 0l-582.2 0c-89.6,-0 -153.1,-72.6 -142.3,-162.1l71.7 -582.2c10.8,-89.5 92.2,-162.1 181.9,-162.1l582.2 0c89.6,0 153.1,72.6 142.3,162.1l-71.7 582.2c-10.9,89.5 -92.3,162.1 -181.9,162.1z"/>
   <path class="fil3" d="M12680.6 5270.2l0.2 0 -0.2 0zm-2440.4 7951.1c0,0.7 0.2,1.3 0.2,1.9 0,-0.7 -0.2,-1.3 -0.2,-1.9zm12919.4 4924.9c0,114.8 -93.4,208 -208.2,208 -114.8,0 -208,-93.1 -208,-208 0,-107.6 81.5,-196 186,-207l-43 -8629.2c-3.7,6.5 -10.9,10.8 -19,10.8l-12342.7 -23.9c-12.2,-0 -22.1,-9.9 -22.1,-22.1l0 -557.6c0,-5.9 2.4,-11.5 6.4,-15.7 4.2,-4.1 9.9,-6.5 15.7,-6.5 5949,11.5 4876.8,9.4 9476.2,18.3l-213.3 -346c-4.2,-6.8 -4.5,-15.4 -0.5,-22.4 4,-7 11.3,-11.4 19.2,-11.4l351.3 0c-6.8,-27.5 -10.6,-56.3 -10.8,-85.8l-11.8 -61.7 -8.7 0c-183.2,0 -332.1,-149 -332.1,-332.2l0 -291.2c0,-122.8 66.9,-230.3 166.3,-287.7l-34.9 -182c-0.2,-1.4 -0.4,-2.8 -0.4,-4.2 0,-75.2 18.6,-130.3 56.9,-168.2 70.4,-69.8 194,-68.8 337.4,-67.6 18.8,0.1 37.8,0.3 57.3,0.3l1358.1 0c19.5,0 38.7,-0.1 57.3,-0.3 143.2,-1.3 267.1,-2.2 337.4,67.6 38.3,37.9 56.9,93 56.9,168.2 0,1.4 0,2.8 -0.2,4.2l-221.5 1154.8c-0.2,29.5 -3.9,58.3 -10.7,85.8l363.6 0c7.8,0 14.8,4.1 18.8,10.7 4.2,6.6 4.2,14.9 0.7,21.8l-186 351.4 754.7 1.5c12.2,0 21.9,9.8 22.1,22l45.8 9198.2c104.4,11.1 185.9,99.5 185.9,207zm-12612.9 -8893.5l12320.8 23.8c8,0 14.8,4.3 18.8,10.6l-2.6 -524 -2140.8 -4.1 -701.6 0c-2.7,0 -5.3,-0.5 -7.7,-1.4l-9486.9 -18.3 0 513.4zm10188.7 -538l1366.9 0 178.6 -336.9 -2435 0 206.9 335.6 682.6 1.3zm-426.9 -528.7l-128.3 0 10.6 55.4c0.2,1.4 0.2,2.8 0.2,4.2 0,30.5 4.3,60 12.2,87.9l1705 0c8,-28 12.2,-57.5 12.2,-87.9 0,-1.4 0.2,-2.8 0.4,-4.2l221.3 -1154.8c-0.2,-61.7 -14.7,-105.8 -43.8,-134.7 -57.1,-56.8 -172.4,-55.9 -305.8,-54.8 -18.8,0.1 -38.1,0.3 -57.7,0.3l-1358.1 0c-19.5,0 -38.7,-0.1 -57.8,-0.3 -133.2,-1.1 -248.5,-2 -305.8,54.8 -29.2,28.9 -43.4,73 -43.8,134.7l32.2 168.1c38.5,-15.6 80.6,-24.3 124.6,-24.3l171.5 0c12.3,0 22.1,9.9 22.1,22.1 0,12.2 -9.7,22.1 -22.1,22.1l-171.5 -0c-41.3,0 -80.6,8.8 -116.1,24.5l161.6 842.5 136.8 0c12.2,0 22.1,9.9 22.1,22.1 0,12.2 -10,22.1 -22.1,22.1zm-339.2 -864.6c-78.8,51.4 -131,140.4 -131,241.2l0 291.2c0,158.8 129.2,287.9 287.8,287.9l0.3 0 -157.2 -820.4zm-16961 10738.9c0,162.6 -131.9,294.7 -294.7,294.7 -162.6,0 -294.5,-132.1 -294.5,-294.7 0,-162.8 131.9,-294.7 294.5,-294.7 162.9,0 294.7,131.9 294.7,294.7zm-255.8 -357.9c-0.9,0 -1.8,-0 -2.7,-0.1 -12,-1.3 -20.8,-12.3 -19.5,-24.4l443.8 -4008.2 -1527.5 0 -568.5 3978c-1.5,11 -11.1,19 -21.9,19 -1.1,0 -2.2,-0.1 -3.1,-0.2 -12.1,-1.7 -20.6,-12.9 -18.8,-25l567.6 -3971.7 -115.4 0c-207.3,0 -380.8,-142.1 -429.9,-333.9 -1.3,-3.6 -2.6,-7.1 -3.8,-10.7 -182.3,-620.2 -852.5,-5953 -1049.9,-7541 -29.2,-236.1 154.9,-444.3 392.8,-444.4l1973.9 0c203.8,0 374.2,154.6 393.9,357.3 24.1,248.5 61,611.2 109.4,1037.9l0 0c184.5,1619.6 417.3,4092.5 1123.1,5142.3 477.9,710.8 1116.2,837.3 1412.3,855.5l159.8 0c2.4,-0.2 3.5,-0.4 3.5,-0.4l0.2 0.4 718.9 0c243.8,0 441.8,196.6 444,440 228.8,-0.3 455.5,-0.4 677.3,-0.4 5.1,0 10.4,0 15.3,0 2770.9,0 2792.8,21.9 2806.1,35 2.7,2.6 4.7,6.1 5.8,9.7 0.6,0.9 1.3,2 2.4,3.3l3984.6 4744.9c146.9,212.1 386.7,337.6 642.8,337.6l5486.1 0c55.8,0 107.3,-27.6 138.3,-73.9 24.8,-37.2 33.4,-81.9 24.6,-125.7 -9,-44 -34.7,-81.7 -72.3,-106l-1995.2 -1296.9c-1.3,-0.8 -2.4,-1.7 -3.5,-2.8l-5576.8 -5488.6c-3.9,-0.9 -8,-2.9 -11.1,-6 -61.5,-61.9 -121.7,-123.8 -181.7,-185 -585.5,-599.8 -1091.3,-1117.8 -1950.7,-1117.8l-4514.8 0 13.1 -44.2 4501.7 -0c878.2,0 1414.6,549.4 1982.3,1131.1 57.3,58.6 115.1,117.7 173.7,176.9 4,0.9 7.5,2.8 10.6,5.8l5583 5494.7 1993.4 1295.7c47.6,30.9 80.1,78.4 91.4,134 11.5,55.5 0.4,112.2 -31,159.3 -39.2,58.6 -104.4,93.6 -175,93.6l-5486.1 0c-270.4,0 -524,-132.5 -678,-354.9l-2173.6 -2588.3 -528.3 1763.8 1171.6 844.3c67.1,48.5 94,130.5 68.6,209.1 -25.4,78.8 -95.2,129.7 -177.9,129.7l-5400 0c-104.9,0 -199.8,-49.1 -260.4,-134.8 -60.6,-85.6 -75.2,-191.4 -40.5,-290.3 317.1,-899.9 1110.2,-3222.1 1616.4,-4707.5 -516.3,-1.5 -1110.9,-1.6 -1732.1,-0.9l0 8.6c0,245.2 -198.9,444.1 -444.1,444.1l-536.5 0 614.8 3993.7c1.8,12.1 -6.4,23.4 -18.6,25.2 -1.1,0.2 -2.2,0.3 -3.3,0.3 -10.9,0 -20.1,-7.8 -21.9,-18.7l-615.6 -4000.4 -2490.9 0 -444.3 4013.1c-1.3,11.3 -10.9,19.7 -21.9,19.7zm-1432.7 356.6c0,162.9 -132.1,294.7 -294.7,294.7 -162.9,-0 -294.7,-131.9 -294.7,-294.7 0,-162.7 131.9,-294.6 294.7,-294.6 162.6,0 294.7,131.9 294.7,294.6zm4814.5 -3.3c0,162.6 131.9,294.7 294.7,294.7 162.6,0 294.5,-132.1 294.5,-294.7 0,-162.8 -131.9,-294.7 -294.5,-294.7 -162.8,0 -294.7,131.9 -294.7,294.7zm8290 -140.3c-10.6,0 -20.2,-7.9 -21.9,-18.8 -1.7,-12.1 6.6,-23.3 18.6,-25.2 1241.3,-189.1 2495.7,-566.8 3835,-1154.4 11.3,-4.9 24.3,0.2 29.2,11.4 4.9,11.2 -0.2,24.2 -11.3,29.2 -1342.9,589.2 -2601,967.9 -3846.3,1157.6 -1.1,0.2 -2.2,0.3 -3.3,0.3zm-3087.8 -4662.6l-1010.3 0c-12.2,0 -22.1,-9.9 -22.1,-22.1 0,-12.2 9.9,-22.1 22.1,-22.1l1010.3 0c12.2,0 22.1,9.9 22.1,22.1 0,12.2 -10,22.1 -22.1,22.1zm-2822.8 -34.9c-505.9,1484.9 -1303.1,3819.2 -1621.3,4722.1 -30.1,85.1 -17.5,176.3 34.7,250 52.2,73.9 134.1,116.2 224.4,116.2l5400 0c76.6,0 120.4,-51.1 135.9,-98.9 15.5,-47.8 9.7,-114.8 -52.4,-159.5l-1184.4 -853.6c-7.5,-5.5 -10.8,-15.3 -8.2,-24.3l541.2 -1806.7 -1776.5 -2115.6c-1.8,-2.2 -3.1,-4.2 -4.4,-6.1 -84.2,-13.6 -752.9,-20.7 -1688.8,-23.5zm1726.7 5.3c0,0.1 0,0.1 0,0.1 0,-0.1 0,-0.1 0,-0.1zm-44.3 0.1c0,0 0,0.1 0,0.1 0,-0 0,-0.1 0,-0.1zm-1544 4354.4c-478.4,0 -957,-30 -1417.2,-91.2 -12.2,-1.6 -20.6,-12.7 -19,-24.8 1.6,-12.1 12.6,-20.5 24.8,-19 1366.3,181.6 2894.8,87.5 4089.3,-251.6 11.7,-3.4 23.9,3.5 27.4,15.2 3.3,11.7 -3.5,24 -15.3,27.3 -797.5,226.4 -1742.9,344.1 -2689.9,344.1zm-1954 -9577c-2.2,0 -4.7,-0.4 -6.9,-1.1 -11.7,-3.8 -17.9,-16.3 -14.1,-27.9 73.5,-224.3 150.5,-450.6 228.8,-672.5 8.2,-23 19.2,-54.4 45.1,-74.2 62.4,-47.4 145.6,7.5 173,25.5 10.2,6.7 13.1,20.4 6.2,30.6 -6.6,10.2 -20.4,13 -30.5,6.3 -56,-36.9 -97.1,-46.1 -121.9,-27.2 -14.1,10.9 -22.1,30.8 -30.1,53.7 -78.3,221.6 -155.1,447.5 -228.6,671.6 -3.1,9.3 -11.7,15.2 -21,15.2zm96.3 -3821c210.1,-25.1 405.8,-106.5 530.7,-290.5 258.8,-380.9 -16.6,-969.2 -244.9,-1339 -4.1,0.7 -8.3,-1.7 -12.6,-9.3 -4.4,-7.8 -34.9,-44.2 -39.6,-51.9 -17.3,-17.9 -27.4,-33.6 -62.6,-64.2 23.9,121.2 32.5,276.9 37.2,392.9 3.1,78.3 3.6,156.8 1.8,235.2 34.1,17 55,31.4 55.7,31.9 10,7 12.4,20.8 5.3,30.8 -7.1,10 -20.8,12.3 -30.8,5.4 -2.2,-1.7 -233,-160.6 -410.9,-22.2 -78.1,60.7 -53.1,161.6 -31,216.2 61.3,153.2 237.6,306 402.3,289.1 11.7,-1.2 23,7.6 24.1,19.8 1.3,12.1 -7.5,23 -19.7,24.3 -9.5,0.9 -19.2,1.4 -29,1.4 -9.2,0 -18.4,-0.5 -27.5,-1.3l-2.6 13.9c-32.6,174.1 -79.4,350.2 -145.9,517.5zm221.2 -844.1c-6.2,0 -12.4,-2.6 -16.8,-7.6 -43.8,-50.5 -89,-79.5 -134.3,-86.1 -46.4,-6.8 -104.7,17.5 -117.1,64.6 -3.1,11.8 -15.3,18.9 -27,15.7 -11.7,-3.1 -18.8,-15.2 -15.7,-27 19,-72.4 101.4,-106.7 166.4,-97.1 56,8.3 110.2,42.2 161.1,100.9 8,9.2 7.1,23.2 -2.2,31.2 -4.2,3.6 -9.3,5.4 -14.4,5.4zm-3799.1 5056.4c55.5,47.9 133.6,54 203.1,62.1 92.1,10.7 186.1,15.3 278.8,9.4 69.7,-4.5 143.4,-20.5 188.3,-78.9 47.8,-62.3 48.7,-147.5 54.6,-222.4 7.7,-97.1 13.3,-194.4 15.5,-291.8 2,-74.7 4,-149.4 -2.6,-223.6 72.6,6.2 148,-2.3 214.4,-17.6 202.7,-47 389.7,-184.9 476.2,-376.6 57.1,-126 74.8,-264.3 77.2,-401.4 0.9,-46.6 -0.2,-93.8 -4.9,-140.5 28.1,-11.3 55.8,-23.1 83.4,-35.4 192.7,-86.2 378.1,-210 484.6,-397.5 83.4,-146.9 115.3,-326.8 83,-493.5 23.5,-5 46.2,-10.7 67.7,-18.7 206.9,-77.5 342.8,-273.8 462.5,-449.1 57.3,-83.8 104,-183.6 128.8,-287.4 70.6,-29.7 138.7,-66.1 202.2,-108.4 254.3,-169 427.4,-416.2 544.6,-691.1 229.8,-23 447.9,-109.4 588,-315.6 278.5,-410 -13.2,-1023.2 -249.6,-1400.1 32.7,-45.1 62.7,-92.4 87.7,-142.2 109.5,-217.5 135,-472.8 80.5,-709.4 -55.3,-241.1 -196.9,-451.9 -400.1,-593.2 -195.8,-136.3 -439.2,-204.9 -677.5,-195.3 -119.9,4.9 -239.4,29.6 -350.5,75.5 -62.1,25.7 -121.5,58.1 -167.9,107.8 -46.4,49.7 -83.9,104.9 -136.5,148.8 -192.3,160.4 -460.7,190.7 -688.1,276.9 -233.9,88.6 -427.5,246.3 -568.4,452.5 -141.8,208 -225.7,455.6 -245.6,706.3 -23.6,297.5 36.5,597.6 146.3,873.5 114.4,287.2 279,546.9 468.2,789.3 -68.8,54.2 -127.5,126.2 -171.9,192.2 -139.2,207.2 -190.7,468.3 -180.3,714.9 5.8,139.8 29.4,278.5 62.2,414.5 -118.8,-0.3 -221.9,109.9 -287.2,196.9 -139.4,186.2 -198.7,427.2 -165.3,656.9 11.3,77.7 33.8,153.9 65.7,225.9 -91.6,10.4 -168.6,76.6 -223.3,149.1 -73.7,97.4 -121,216 -139.9,336.3 -17.7,112.9 -17,237.6 24.6,345.5 13.5,34.9 31.6,69.3 54.7,98.5 -6.6,17 -13.7,33.9 -22.6,50.1 -22.6,41.1 -49.8,79.5 -79.2,115.9 -61.1,75.7 -128.3,146.7 -193.4,219.1 -63.5,70.8 -129.4,140.1 -190.7,212.8 -42.5,50.3 -50.7,112.7 2.9,158.9zm7339.2 49.1c-5.8,0 -11.7,-2.3 -16.1,-6.9 6.4,-5.9 11.8,-11 16.1,-15.2l-11.2 -19.5c31,-27.3 250.8,-219.5 398.4,-310.5 12.9,-7.9 31.4,-18.4 54,-31 105.3,-59.4 324.8,-183.1 367.5,-294.2 47.4,-123 3.8,-168.4 2,-170.3 -5.3,-5.3 -7.7,-13.1 -6.2,-20.4 1.3,-7.3 6.4,-13.5 13.3,-16.3 2.5,-1 244.3,-96.6 316,-205.4 70.6,-107.3 50.7,-247.3 50.5,-248.7 -1.5,-10.9 5.1,-21.5 15.7,-24.5 1.1,-0.4 125.5,-38.6 238.5,-187.7 110.7,-145.9 51.6,-325.3 51.1,-327.1 -3.7,-10.8 1.3,-22.7 12,-27.4 2.6,-1.2 271,-123 296.5,-357 20.4,-186.9 -75,-265.9 -112.9,-289.5l-195.1 261.7c-2,2.9 -4.9,5.2 -8.2,6.8 -116.4,55.5 -763.4,102.7 -791,104.6 -7.3,0.6 -14.4,-2.6 -18.8,-8.3 -4.6,-5.7 -6,-13.3 -3.8,-20.3 0.7,-2.5 76.1,-248.5 86.7,-385.7 5.8,-75.9 -10.2,-135.9 -46,-173.4 -32.1,-33.5 -80.1,-49.1 -143.2,-47.3 -77.4,2.6 -217.9,187 -342.1,349.6 -117.3,153.8 -238.7,312.8 -337.4,370 -127.9,74.1 -526.3,307.2 -807.8,472.1 -68.3,43.3 -215.5,135.5 -296.6,173.6 -12,6.7 -24.3,1.1 -30.5,-7.6l-0.4 -1.2c-6.2,-10.6 -2.3,-23 8.4,-29.1 8.8,-5.3 900.6,-527.9 1104.8,-646.1 91.2,-52.8 209.8,-208.2 324.4,-358.5 148.9,-195.2 277.5,-363.7 375.9,-367 75.7,-2.7 135.4,17.9 176.6,60.9 44.7,46.8 64.8,118.6 58,207.4 -8.6,113.9 -58.4,292.6 -79.2,364.4 233.7,-17.7 644.8,-57 738.4,-96l202.9 -272.4c3.3,-4.3 7.9,-7.2 12.9,-8.4l433.2 -582.3c25.7,-34.5 32.1,-77.5 17.4,-118 -14.6,-40.5 -46.9,-69.6 -88.7,-79.9l-2955.9 -726c-10.2,-2.5 -20.4,-3.6 -30.3,-3.6 -39.2,0 -77,18.4 -101.1,50.9l-500.8 673.2 391.7 0c59.1,0 114.4,29.4 147.6,78.6 32.7,48.4 39.4,109.3 17.7,163.1 -43.8,108.9 -164.2,239.9 -488.3,244.9 -249,3.8 -391.8,30.1 -473.6,57.7l-690.1 927.7c-8,-13.9 -16.1,-27.8 -24.2,-41.7l594.6 -799.3c-3.2,1.7 -6.9,2.6 -10.8,2.6 -0.4,0 -0.9,-0 -1.5,-0 -12.2,-0.8 -21.2,-12.1 -20.6,-24.3 1.8,-26.3 40.3,-158 625.5,-167 237.4,-3.6 392.3,-78.7 447.8,-217.1 16.4,-40.7 11.7,-85.1 -13.1,-121.7 -25,-37 -66.6,-59.1 -111.1,-59.1l-835 0c-208.4,0 -418.4,46.6 -607.2,134.8l-676.9 316.3c-9.4,-12.1 -18.8,-24.1 -28.1,-35.8l686.2 -320.6c194.7,-90.9 411.1,-139 626,-139l388.3 -0 520.5 -699.6c40.9,-55.2 110.6,-80.2 177.2,-63.8l2956.1 726c55.6,13.6 100.5,54 119.7,107.9 19.5,53.9 10.6,113.5 -23.7,159.4l-426.4 573.2c50.6,33.9 147.7,126.2 125.9,327.2 -24.6,225.5 -241,351.6 -305.1,384.3 13.7,54 40.9,212 -63.3,349.2 -97.8,129.1 -202.7,180.8 -243.6,197.1 3.6,44.8 5.5,162.9 -59.3,261.5 -65.5,99.4 -244.9,183.3 -311.8,211.9 15.5,31.5 29.2,92.7 -8.9,192 -48.4,125.9 -268.8,250.1 -387.2,316.8 -21.9,12.3 -39.8,22.5 -52.4,30.1 -152.7,94 -393.4,306.8 -395.8,308.9 -4.2,3.7 -9.3,5.6 -14.6,5.6zm872.5 -1671.8c-10.4,0 -19.7,-7.4 -21.7,-17.9 -2.2,-12 5.5,-23.6 17.5,-25.9 185.9,-35.9 370.6,-86.3 548.8,-149.8 11.5,-4.1 24.3,1.9 28.3,13.4 4.2,11.5 -1.8,24.2 -13.5,28.3 -180.3,64.3 -367.1,115.3 -555.2,151.5 -1.3,0.3 -2.9,0.4 -4.2,0.4zm-150.9 499.7c-10.2,0 -19.5,-7.1 -21.7,-17.6 -2.4,-12 5.1,-23.7 17.1,-26.2 137.4,-29 272.1,-75.3 409.6,-124.3 11.5,-4.1 24.1,1.9 28.1,13.4 4.2,11.5 -1.8,24.2 -13.3,28.3 -133.4,47.5 -275.3,96.4 -415.1,125.9 -1.5,0.3 -3.1,0.5 -4.7,0.5zm-217.1 455c-8.8,0 -17.3,-5.5 -20.8,-14.4 -4.2,-11.5 1.8,-24.2 13.1,-28.5l260.2 -96.8c11.5,-4.2 24.1,1.6 28.3,13 4.4,11.5 -1.5,24.2 -12.8,28.5l-260.2 96.7c-2.4,0.9 -5.1,1.4 -7.8,1.4z"/>
  </g>
 </g>
</svg>
